<svg width="376" height="376" viewBox="0 0 376 376" fill="none" xmlns="http://www.w3.org/2000/svg">
<path d="M171.456 39.9614C264.704 31.6894 264.884 84.2768 306.914 133.3C348.943 182.323 357.952 204.544 342.1 261.072C326.248 317.6 272.871 361.893 206.8 336.791C140.729 311.689 102.919 335.798 61.2579 313.479C19.5971 291.16 4.15103 248.16 34.6446 197.385C65.1382 146.61 56.4526 50.2037 171.456 39.9614Z" fill="#89B2FF"/>
<path d="M171.456 39.9614C264.704 31.6894 264.884 84.2768 306.914 133.3C348.943 182.323 357.952 204.544 342.1 261.072C326.248 317.6 272.871 361.893 206.8 336.791C140.729 311.689 102.919 335.798 61.2579 313.479C19.5971 291.16 4.15103 248.16 34.6446 197.385C65.1382 146.61 56.4526 50.2037 171.456 39.9614Z" fill="url(#paint0_linear_350_2038)"/>
<path opacity="0.2" d="M210.898 305.207L209.515 305.056C208.874 305.016 208.268 304.749 207.806 304.303C207.344 303.856 207.057 303.259 206.996 302.62C206.244 294.671 199.385 289.084 190.451 288.069C182.413 287.166 173.156 290.716 167.079 296.792C166.323 297.594 165.399 298.22 164.374 298.626C163.349 299.031 162.247 299.206 161.146 299.138L154.303 298.386C153.362 298.31 152.47 297.933 151.76 297.312C151.049 296.69 150.556 295.857 150.355 294.935C148.746 287.986 142.519 282.699 134.473 281.797C125.546 280.797 115.5 284.497 109.559 291.693C109.088 292.275 108.484 292.734 107.798 293.033C107.112 293.331 106.365 293.46 105.618 293.408L104.242 293.25C103.917 293.231 103.595 293.319 103.323 293.499C103.052 293.68 102.847 293.943 102.738 294.25L101.603 297.567C101.51 297.786 101.507 298.033 101.596 298.255C101.685 298.476 101.858 298.653 102.076 298.747L103.641 299.499C104.244 299.802 104.724 300.305 104.998 300.922C105.273 301.539 105.324 302.232 105.145 302.883C102.656 313.644 108.905 322.969 119.952 324.202C130.585 325.398 142.083 318.668 147.189 308.771C147.616 307.972 148.234 307.29 148.989 306.787C149.743 306.285 150.61 305.977 151.513 305.891C153.95 305.687 156.404 305.942 158.747 306.643C159.497 306.865 160.136 307.361 160.536 308.033C160.936 308.705 161.068 309.503 160.905 310.268C159.071 320.555 165.275 329.293 175.945 330.489C186.977 331.73 198.927 324.473 203.732 313.945C204.08 313.229 204.587 312.604 205.216 312.116C205.844 311.628 206.577 311.292 207.356 311.133L209.319 310.749C209.592 310.707 209.849 310.593 210.064 310.419C210.278 310.244 210.441 310.016 210.537 309.756L211.673 306.44C211.727 306.308 211.749 306.166 211.737 306.024C211.725 305.882 211.679 305.745 211.603 305.624C211.527 305.504 211.424 305.403 211.301 305.33C211.179 305.258 211.041 305.215 210.898 305.207ZM120.892 321.42C110.642 320.269 105.137 311.072 108.619 300.913C112.101 290.753 123.268 283.436 133.518 284.587C143.767 285.738 149.31 294.935 145.798 305.087C142.286 315.239 131.141 322.608 120.892 321.42ZM149.204 303.425C149.347 302.838 149.468 302.251 149.558 301.672C149.613 301.433 149.751 301.22 149.948 301.073C150.145 300.925 150.388 300.853 150.633 300.868L162.906 302.244C163.014 302.254 163.118 302.293 163.208 302.355C163.297 302.418 163.369 302.502 163.416 302.601C163.462 302.699 163.483 302.808 163.475 302.917C163.468 303.026 163.432 303.131 163.372 303.222C163.079 303.771 162.808 304.327 162.552 304.899C157.604 302.447 152.145 302.891 149.204 303.425ZM176.878 327.707C166.628 326.556 161.086 317.359 164.598 307.2C168.11 297.04 179.254 289.723 189.504 290.874C199.754 292.024 205.258 301.221 201.777 311.373C198.295 321.525 187.128 328.857 176.878 327.707Z" fill="black" fill-opacity="0.7"/>
<path d="M201.814 305.808L122.223 302.462C120.344 302.384 118.469 302.701 116.721 303.393C114.972 304.084 113.388 305.135 112.071 306.478L97.7828 321.036C97.6513 321.173 97.552 321.336 97.4923 321.516C97.4326 321.695 97.414 321.886 97.4378 322.074C97.4616 322.261 97.5273 322.441 97.6299 322.6C97.7326 322.759 97.8696 322.893 98.0309 322.992C98.7409 323.411 99.5703 323.58 100.388 323.474C101.205 323.368 101.964 322.992 102.543 322.405L115.808 308.959C116.597 308.159 117.542 307.531 118.585 307.114C119.628 306.698 120.747 306.501 121.869 306.538L201.581 309.17L201.814 305.808Z" fill="#263238"/>
<path d="M95.7373 293.919L174.412 306.387C176.269 306.684 178.044 307.366 179.622 308.391C181.199 309.416 182.545 310.759 183.571 312.336L194.701 329.436C194.805 329.594 194.872 329.773 194.897 329.961C194.922 330.148 194.903 330.339 194.843 330.518C194.783 330.697 194.682 330.86 194.549 330.994C194.417 331.129 194.255 331.231 194.076 331.294C193.295 331.572 192.443 331.58 191.658 331.315C190.872 331.05 190.198 330.529 189.745 329.835L179.457 314.043C178.844 313.102 178.042 312.299 177.103 311.684C176.163 311.069 175.106 310.656 173.998 310.471L95.3613 297.266L95.7373 293.919Z" fill="#263238"/>
<path d="M142.406 307.26C143.339 307.606 142.143 314.178 139.564 316.051C136.985 317.923 135.699 312.073 136.609 310.23C137.518 308.388 139.481 306.154 142.406 307.26Z" fill="#757575" stroke="#263238" stroke-width="0.752" stroke-linecap="round" stroke-linejoin="round"/>
<path d="M156.183 308.801C155.198 308.937 154.912 315.607 157.01 318.006C159.108 320.405 161.665 314.998 161.184 312.99C160.702 310.982 159.281 308.373 156.183 308.801Z" fill="#757575" stroke="#263238" stroke-width="0.752" stroke-linecap="round" stroke-linejoin="round"/>
<path opacity="0.4" d="M110.153 285.67C114.868 282.88 124.607 278.428 133.119 285.783C141.632 293.137 143.835 299.883 140.414 307.921C136.992 315.96 129.036 326.082 115.274 321.66C101.513 317.239 95.5042 294.333 110.153 285.67Z" fill="white"/>
<path opacity="0.4" d="M166.087 292.694C170.81 289.904 180.54 285.452 189.053 292.807C197.566 300.161 199.777 306.899 196.348 314.945C192.918 322.992 184.992 333.136 171.208 328.677C157.424 324.218 151.431 301.357 166.087 292.694Z" fill="white"/>
<path d="M203.649 304.891L202.266 304.733C201.58 304.662 200.93 304.392 200.396 303.956C199.862 303.521 199.466 302.939 199.257 302.282C196.776 294.258 188.842 288.618 179.916 287.618C171.877 286.708 163.628 290.302 159.056 296.446C158.461 297.266 157.663 297.917 156.739 298.332C155.816 298.748 154.799 298.914 153.792 298.815L146.941 298.063C145.935 297.936 144.98 297.548 144.171 296.937C143.363 296.326 142.728 295.514 142.331 294.581C140.644 290.994 138.071 287.896 134.854 285.58C131.637 283.264 127.882 281.807 123.945 281.346C115.018 280.338 106.032 284.083 101.836 291.355C101.488 291.949 100.976 292.429 100.36 292.736C99.7443 293.043 99.0526 293.164 98.3692 293.085L96.993 292.927C96.6919 292.893 96.3896 292.98 96.1527 293.169C95.9158 293.358 95.7637 293.633 95.7297 293.935L95.3537 297.281C95.3269 297.536 95.3865 297.792 95.5229 298.009C95.6592 298.226 95.8645 298.39 96.1057 298.477L97.8052 299.266C98.4623 299.563 99.0201 300.043 99.4121 300.648C99.8041 301.254 100.014 301.959 100.016 302.68C99.9945 307.896 101.865 312.943 105.281 316.885C108.698 320.827 113.427 323.396 118.594 324.115C123.76 324.835 129.012 323.657 133.375 320.8C137.739 317.942 140.918 313.599 142.324 308.576C142.552 307.783 143.017 307.08 143.657 306.559C144.297 306.039 145.081 305.727 145.903 305.666C148.335 305.468 150.783 305.723 153.122 306.418C153.922 306.657 154.628 307.136 155.147 307.79C155.666 308.443 155.973 309.24 156.025 310.072C156.271 315.286 158.401 320.233 162.019 323.995C165.638 327.757 170.498 330.079 175.698 330.528C180.898 330.977 186.085 329.524 190.295 326.438C194.504 323.353 197.451 318.844 198.588 313.75C198.75 313.047 199.11 312.405 199.626 311.901C200.142 311.397 200.792 311.052 201.498 310.907L203.333 310.516C203.582 310.478 203.812 310.36 203.987 310.18C204.162 309.999 204.273 309.766 204.303 309.516L204.679 306.17C204.698 306.018 204.686 305.863 204.644 305.716C204.602 305.569 204.531 305.431 204.435 305.312C204.339 305.193 204.22 305.094 204.085 305.022C203.95 304.95 203.802 304.905 203.649 304.891ZM119.425 321.337C115.748 320.925 112.275 319.431 109.447 317.045C106.619 314.658 104.562 311.487 103.536 307.932C102.51 304.376 102.561 300.597 103.683 297.07C104.806 293.544 106.948 290.43 109.84 288.122C112.733 285.813 116.244 284.414 119.931 284.102C123.619 283.789 127.316 284.577 130.555 286.365C133.795 288.154 136.431 290.863 138.131 294.15C139.831 297.437 140.518 301.154 140.105 304.831C139.546 309.754 137.059 314.255 133.189 317.348C129.319 320.442 124.38 321.876 119.455 321.337H119.425ZM143.061 303.147C143.061 302.552 143.061 301.966 143.023 301.379C143.012 301.265 143.028 301.149 143.069 301.041C143.11 300.934 143.175 300.837 143.259 300.759C143.344 300.68 143.445 300.622 143.555 300.589C143.665 300.556 143.782 300.548 143.895 300.567L156.16 301.943C156.276 301.95 156.389 301.983 156.489 302.04C156.59 302.098 156.676 302.178 156.741 302.274C156.806 302.37 156.848 302.48 156.863 302.594C156.878 302.709 156.867 302.826 156.83 302.936C156.664 303.485 156.521 304.049 156.401 304.62C152.221 302.772 147.573 302.257 143.091 303.147H143.061ZM175.397 327.624C171.719 327.211 168.247 325.717 165.419 323.331C162.59 320.945 160.533 317.774 159.507 314.218C158.481 310.663 158.533 306.883 159.655 303.357C160.777 299.831 162.92 296.717 165.812 294.408C168.704 292.1 172.216 290.701 175.903 290.388C179.59 290.076 183.287 290.863 186.527 292.652C189.766 294.44 192.402 297.15 194.102 300.436C195.802 303.723 196.489 307.44 196.077 311.118C195.517 316.038 193.032 320.536 189.165 323.629C185.299 326.722 180.364 328.159 175.442 327.624H175.397Z" fill="#6299FF" stroke="#263238" stroke-width="0.752" stroke-linecap="round" stroke-linejoin="round"/>
<path opacity="0.5" d="M107.01 312.434C107.01 312.434 101.791 302.267 108.416 292.679C114.379 284.061 124.674 284.768 129.089 287.618L115.447 303.981C117.198 299.7 119.407 295.621 122.035 291.814C122.035 291.814 111.191 299.507 107.01 312.434Z" fill="white"/>
<path opacity="0.5" d="M162.951 318.171C162.951 318.171 157.74 308.004 164.365 298.424C170.32 289.798 180.623 290.505 185.037 293.355L171.388 309.719C173.321 303.312 177.976 297.552 177.976 297.552C177.976 297.552 167.132 305.244 162.951 318.171Z" fill="white"/>
<path opacity="0.2" d="M112.424 238.452C112.424 238.452 97.2111 257.335 96.1508 258.523C95.0905 259.711 95.3988 278.827 92.7969 287.437C90.195 296.047 81.2161 304.891 61.1452 348.477L58.438 263.561L73.2298 204.416L112.424 238.452Z" fill="black" fill-opacity="0.7"/>
<path d="M123.591 237.632C123.591 237.632 113.544 191.489 105.603 185.744C101.001 182.42 94.0601 181.232 87.999 181.811C83.6148 182.225 79.6819 183.571 77.471 185.714C72.1468 190.82 64.4388 193.806 60.6939 197.122C56.9489 200.438 57.5956 211.41 55.6179 220.795C53.6401 230.18 50.0079 230.706 49.7147 240.009C49.4214 249.311 47.7219 277.857 42.0894 286.076C36.4569 294.295 36.675 300.469 34.622 308.636C32.5691 316.803 15.822 346.808 15.822 346.808L61.3556 353.44C61.3556 353.44 64.6719 334.821 68.5523 319.6C70.3871 312.373 72.3123 305.899 74.0795 302.53C77.4392 296.027 80.283 289.271 82.5846 282.324C87.3673 276.691 89.4503 264.704 89.6835 254.312L101.332 246.874C110.439 243.791 123.591 237.632 123.591 237.632Z" fill="white"/>
<path opacity="0.4" d="M123.591 237.632C123.591 237.632 113.545 191.489 105.603 185.744C101.001 182.42 94.0602 181.232 87.9991 181.811C73.8164 186.271 70.4173 194.52 68.5824 196.573C66.1384 199.318 63.6568 215.29 66.0708 224.397C68.4847 233.504 67.3416 236.94 66.0708 241.513C63.2282 251.649 73.9968 256.38 75.2978 260.072C76.5988 263.764 77.4485 284.813 73.1696 291.927C70.9136 295.687 65.5594 314.848 68.5599 319.638C70.3948 312.411 72.3199 305.936 74.0871 302.567C77.4468 296.065 80.2906 289.309 82.5922 282.361C87.3749 276.729 89.458 264.742 89.6911 254.349L101.34 246.912C110.439 243.791 123.591 237.632 123.591 237.632Z" fill="#6299FF"/>
<path d="M68.8004 244.182C68.8004 244.182 66.0857 241.347 63.8447 241.475" stroke="#263238" stroke-width="0.752" stroke-linecap="round" stroke-linejoin="round"/>
<path d="M73.7336 233.767C73.7336 233.767 70.6579 228.127 66.2136 227.119" stroke="#263238" stroke-width="0.752" stroke-linecap="round" stroke-linejoin="round"/>
<path d="M66.928 200.032C66.928 200.032 73.2523 202.333 74.5006 206.8" stroke="#263238" stroke-width="0.752" stroke-linecap="round" stroke-linejoin="round"/>
<path d="M101.332 246.867C101.332 246.867 99.6701 244.994 99.5798 243.453" stroke="#263238" stroke-width="0.752" stroke-linecap="round" stroke-linejoin="round"/>
<path d="M61.3557 353.44C61.3557 353.44 68.635 313.035 74.0795 302.567C77.4392 296.065 80.283 289.309 82.5846 282.361C87.3673 276.729 89.4504 264.734 89.6835 254.342L101.332 246.904C110.439 243.829 123.591 237.7 123.591 237.7C123.591 237.7 113.544 191.557 105.603 185.812C97.6622 180.067 82.7802 180.683 77.441 185.812C72.1018 190.94 64.4088 193.858 60.6638 197.175C56.9189 200.491 57.5656 211.463 55.5878 220.848C53.6101 230.232 49.9779 230.759 49.6846 240.061C49.3914 249.363 47.6918 277.909 42.0594 286.129C36.4269 294.348 36.645 300.522 34.592 308.689C32.539 316.855 15.792 346.86 15.792 346.86" stroke="#263238" stroke-width="0.752" stroke-linecap="round" stroke-linejoin="round"/>
<path d="M53.1675 96.2682L51.818 84.1607C51.7959 83.9625 51.8535 83.7636 51.978 83.6079C52.1026 83.4521 52.2839 83.3522 52.4821 83.3301L57.6016 82.7594L59.1169 96.3541L53.9974 96.9248C53.8004 96.9467 53.6028 96.8901 53.4474 96.7671C53.292 96.6442 53.1914 96.4649 53.1675 96.2682Z" fill="#6299FF" stroke="#263238" stroke-width="0.752" stroke-linecap="round" stroke-linejoin="round"/>
<path d="M76.417 64.1319L88.5245 62.7824C88.7227 62.7603 88.9216 62.8179 89.0773 62.9424C89.2331 63.0669 89.3331 63.2483 89.3551 63.4465L89.9258 68.566L76.3236 70.0821L75.7521 64.9551C75.7322 64.758 75.7908 64.5609 75.9153 64.4068C76.0398 64.2526 76.2201 64.1538 76.417 64.1319Z" fill="#6299FF" stroke="#263238" stroke-width="0.752" stroke-linecap="round" stroke-linejoin="round"/>
<path d="M92.5888 62.3519L104.696 61.0023C104.894 60.9803 105.093 61.0378 105.249 61.1623C105.405 61.2869 105.505 61.4682 105.527 61.6664L106.097 66.7859L92.5028 68.3012L91.9322 63.1817C91.9101 62.9835 91.9676 62.7846 92.0922 62.6288C92.2167 62.473 92.398 62.3731 92.5962 62.351L92.5888 62.3519Z" fill="#6299FF" stroke="#263238" stroke-width="0.752" stroke-linecap="round" stroke-linejoin="round"/>
<path d="M71.1317 245.099L53.1664 83.8029C52.7078 79.6912 53.8992 75.5654 56.4793 72.3312C59.0593 69.097 62.8171 67.0185 66.928 66.552L301.552 40.4125C303.594 40.1803 305.662 40.3533 307.637 40.9215C309.612 41.4897 311.456 42.442 313.063 43.7238C314.669 45.0056 316.007 46.5918 317 48.3915C317.993 50.1912 318.621 52.169 318.848 54.2117L336.813 215.508C337.272 219.627 336.075 223.758 333.487 226.995C330.9 230.231 327.132 232.307 323.014 232.767L88.3901 258.899C86.3507 259.127 84.2863 258.95 82.3151 258.38C80.3438 257.81 78.5042 256.857 76.9015 255.575C75.2987 254.294 73.9642 252.709 72.9742 250.911C71.9842 249.114 71.3581 247.139 71.1317 245.099Z" fill="#6299FF" stroke="#263238" stroke-width="0.752" stroke-linecap="round" stroke-linejoin="round"/>
<path d="M323.014 230.721L87.939 256.906C84.416 257.297 80.8822 256.273 78.1141 254.059C75.346 251.845 73.5703 248.622 73.1772 245.1L55.1292 83.3595C54.7364 79.8353 55.7596 76.2995 57.9737 73.5297C60.1878 70.76 63.4115 68.9832 66.9356 68.5902L302.041 42.4131C305.563 42.0203 309.097 43.0427 311.865 45.2554C314.634 47.4681 316.41 50.6898 316.803 54.2119L334.851 215.952C335.044 217.699 334.891 219.467 334.401 221.155C333.91 222.843 333.092 224.418 331.993 225.79C330.894 227.161 329.535 228.303 327.994 229.149C326.454 229.995 324.761 230.529 323.014 230.721Z" fill="#757575" stroke="#263238" stroke-width="0.752" stroke-linecap="round" stroke-linejoin="round"/>
<path d="M68.041 163.793C68.0624 163.914 68.059 164.037 68.0308 164.156C68.0027 164.275 67.9506 164.387 67.8775 164.485C67.8045 164.583 67.7122 164.665 67.6063 164.726C67.5004 164.787 67.3831 164.825 67.2617 164.839C67.1403 164.853 67.0173 164.842 66.9004 164.806C66.7834 164.771 66.675 164.712 66.5817 164.633C66.4884 164.554 66.4123 164.457 66.3581 164.347C66.3038 164.238 66.2726 164.118 66.2663 163.996C66.2449 163.876 66.2483 163.753 66.2764 163.634C66.3046 163.515 66.3567 163.403 66.4297 163.305C66.5028 163.207 66.5951 163.125 66.701 163.064C66.8069 163.003 66.9242 162.964 67.0456 162.95C67.167 162.936 67.29 162.948 67.4069 162.983C67.5239 163.019 67.6323 163.078 67.7256 163.157C67.8189 163.235 67.895 163.333 67.9492 163.442C68.0034 163.552 68.0347 163.671 68.041 163.793Z" fill="#999999" stroke="#263238" stroke-width="0.752" stroke-linecap="round" stroke-linejoin="round"/>
<path d="M69.7555 171.787C69.7935 172.122 69.7312 172.461 69.5764 172.762C69.4216 173.062 69.1813 173.309 68.8859 173.473C68.5904 173.636 68.2531 173.708 67.9167 173.68C67.5802 173.652 67.2596 173.524 66.9956 173.314C66.7315 173.104 66.5357 172.82 66.4331 172.498C66.3304 172.176 66.3255 171.831 66.4189 171.507C66.5123 171.182 66.6998 170.893 66.9577 170.675C67.2157 170.457 67.5325 170.321 67.868 170.283C68.3177 170.232 68.7692 170.362 69.1231 170.644C69.4771 170.926 69.7045 171.337 69.7555 171.787Z" fill="#263238"/>
<path d="M67.5521 152.032C67.5902 152.367 67.5279 152.707 67.3731 153.007C67.2183 153.307 66.9779 153.554 66.6825 153.718C66.3871 153.881 66.0498 153.953 65.7133 153.925C65.3768 153.897 65.0563 153.77 64.7922 153.559C64.5281 153.349 64.3324 153.065 64.2297 152.743C64.1271 152.421 64.1221 152.076 64.2155 151.752C64.3089 151.427 64.4964 151.138 64.7544 150.92C65.0123 150.702 65.3291 150.566 65.6646 150.528C66.114 150.479 66.5643 150.61 66.9178 150.891C67.2713 151.173 67.4993 151.583 67.5521 152.032Z" fill="#263238"/>
<path d="M69.9361 177.472C69.972 177.8 69.8761 178.129 69.6694 178.386C69.4628 178.644 69.1625 178.809 68.8344 178.845C68.5063 178.88 68.1774 178.785 67.92 178.578C67.6626 178.371 67.4979 178.071 67.462 177.743C67.4442 177.58 67.4586 177.416 67.5043 177.259C67.5501 177.102 67.6263 176.956 67.7286 176.828C67.9352 176.571 68.2356 176.406 68.5637 176.37C68.8917 176.335 69.2206 176.43 69.478 176.637C69.7354 176.844 69.9002 177.144 69.9361 177.472Z" fill="#263238"/>
<path d="M81.9681 245.904L63.7622 82.8478C63.57 81.1089 64.0758 79.3648 65.1685 77.9986C66.2612 76.6323 67.8515 75.7556 69.5902 75.561L305.996 49.241C307.736 49.0487 309.481 49.5543 310.849 50.6468C312.216 51.7394 313.094 53.3297 313.291 55.069L331.452 218.148C331.548 219.009 331.473 219.881 331.232 220.713C330.992 221.545 330.589 222.322 330.048 222.999C329.506 223.676 328.837 224.239 328.078 224.657C327.319 225.075 326.485 225.339 325.624 225.435L89.2174 251.755C87.4802 251.94 85.7406 251.428 84.3811 250.331C83.0216 249.233 82.1536 247.641 81.9681 245.904Z" fill="white"/>
<path opacity="0.3" d="M306.395 49.1884L69.184 75.6061C68.3741 75.695 67.5897 75.9429 66.8759 76.3356C66.162 76.7283 65.5327 77.2581 65.024 77.8946C64.5154 78.5311 64.1375 79.2617 63.9119 80.0446C63.6863 80.8276 63.6175 81.6473 63.7095 82.4569L81.968 246.318C82.0569 247.128 82.3048 247.912 82.6975 248.626C83.0902 249.34 83.62 249.969 84.2565 250.478C84.893 250.986 85.6236 251.364 86.4065 251.59C87.1895 251.815 88.0092 251.884 88.8188 251.792L326.015 225.374C326.824 225.285 327.609 225.036 328.322 224.643C329.036 224.25 329.665 223.721 330.175 223.085C330.684 222.448 331.062 221.718 331.289 220.936C331.516 220.153 331.587 219.334 331.497 218.524L313.246 54.6629C313.062 53.0288 312.238 51.5343 310.953 50.5078C309.669 49.4813 308.029 49.0067 306.395 49.1884Z" fill="#BCD4FF"/>
<path d="M223.667 222.254L182.984 226.766C181.385 226.944 179.766 226.806 178.22 226.359C176.674 225.912 175.231 225.165 173.974 224.16C172.717 223.155 171.67 221.912 170.893 220.502C170.117 219.093 169.626 217.544 169.448 215.944C169.269 214.346 169.407 212.727 169.854 211.182C170.3 209.636 171.047 208.194 172.051 206.937C173.055 205.68 174.297 204.633 175.706 203.856C177.115 203.079 178.663 202.587 180.262 202.408L220.952 197.896C222.552 197.717 224.171 197.854 225.718 198.301C227.264 198.748 228.707 199.495 229.965 200.5C231.222 201.505 232.269 202.748 233.045 204.158C233.821 205.568 234.312 207.118 234.488 208.718C234.668 210.317 234.531 211.937 234.084 213.483C233.637 215.029 232.89 216.473 231.885 217.73C230.88 218.987 229.637 220.034 228.227 220.81C226.816 221.586 225.267 222.077 223.667 222.254Z" fill="#6299FF" stroke="#263238" stroke-width="0.752" stroke-linecap="round" stroke-linejoin="round"/>
<path d="M194.016 218.832L192.189 219.035L191.647 216.982L189.429 217.23L189.346 219.351L187.684 219.539L188.248 207.823L190.895 207.522L194.016 218.832ZM189.504 215.644L191.249 215.448L189.745 209.718L189.504 215.644Z" fill="#263238"/>
<path d="M199.28 209.462L199.446 210.966C199.656 212.809 198.874 213.907 197.069 214.11L196.212 214.2L196.693 218.531L194.888 218.734L193.603 207.221L196.272 206.921C198.047 206.71 199.047 207.62 199.28 209.462ZM195.595 208.658L196.031 212.553L196.889 212.455C197.46 212.395 197.746 212.094 197.641 211.275L197.453 209.545C197.363 208.725 197.017 208.492 196.445 208.56L195.595 208.658Z" fill="#263238"/>
<path d="M205.454 208.77L205.619 210.274C205.822 212.117 205.048 213.215 203.236 213.418L202.386 213.515L202.867 217.839L201.055 218.042L199.776 206.529L202.438 206.229C204.251 206.048 205.243 206.928 205.454 208.77ZM201.769 207.966L202.198 211.861L203.055 211.763C203.634 211.703 203.912 211.402 203.807 210.583L203.619 208.853C203.521 208.033 203.183 207.808 202.604 207.868L201.769 207.966Z" fill="#263238"/>
<path d="M205.973 205.83L207.785 205.627L208.883 215.493L211.891 215.162L212.071 216.809L207.289 217.343L205.973 205.83Z" fill="#263238"/>
<path d="M213.079 212.816L209.936 205.371L211.831 205.161L213.779 210.259L214.531 204.86L216.26 204.672L214.832 212.621L215.253 216.441L213.448 216.636L213.079 212.816Z" fill="#263238"/>
<path d="M229.039 232.962L180.131 238.413L180.3 239.923L229.208 234.471L229.039 232.962Z" fill="#999999" stroke="#263238" stroke-width="0.752" stroke-linecap="round" stroke-linejoin="round"/>
<path d="M299.401 180.811L104.836 202.476C104.836 202.476 96.3839 184.308 101.497 172.516C106.611 160.725 122.095 167.448 128.652 156.506C135.21 145.565 127.614 138.315 134.834 123.328C142.053 108.341 162.74 100.347 178.186 106.919C193.633 113.492 198.859 123.403 208.68 120.628C218.501 117.853 224.096 105.099 243.558 106.032C263.02 106.964 267.201 134.217 266.073 147.663C264.945 161.108 303.748 149.107 299.401 180.811Z" fill="white"/>
<path d="M241.257 121.944L241.076 120.32L228.894 121.681L229.255 124.975L229.909 130.826L242.092 129.472L241.257 121.944Z" fill="white"/>
<mask id="mask0_350_2038" style="mask-type:luminance" maskUnits="userSpaceOnUse" x="228" y="120" width="15" height="11">
<path d="M241.257 121.944L241.076 120.32L228.894 121.681L229.255 124.975L229.909 130.826L242.092 129.472L241.257 121.944Z" fill="white"/>
</mask>
<g mask="url(#mask0_350_2038)">
<path opacity="0.2" d="M229.92 130.716L237.596 129.86L236.589 120.832L228.914 121.687L229.92 130.716Z" fill="black"/>
</g>
<path d="M241.257 121.944L241.076 120.32L228.894 121.681L229.255 124.975L229.909 130.826L242.092 129.472L241.257 121.944Z" stroke="#263238" stroke-width="0.752" stroke-linecap="round" stroke-linejoin="round"/>
<path d="M236.602 120.816L236.692 121.621" stroke="#263238" stroke-width="0.752" stroke-linecap="round" stroke-linejoin="round"/>
<path d="M230.608 140.714L229.217 128.216L235.737 123.283L242.197 122.561L244.032 139.09L230.608 140.714Z" fill="#263238"/>
<mask id="mask1_350_2038" style="mask-type:luminance" maskUnits="userSpaceOnUse" x="229" y="122" width="16" height="19">
<path d="M230.608 140.714L229.217 128.216L235.737 123.283L242.197 122.561L244.032 139.09L230.608 140.714Z" fill="white"/>
</mask>
<g mask="url(#mask1_350_2038)">
<path opacity="0.2" d="M230.608 140.714L237.865 139.91L236.008 123.253L229.217 128.216L230.608 140.714Z" fill="black"/>
</g>
<path d="M230.608 140.714L229.217 128.216L235.737 123.283L242.197 122.561L244.032 139.09L230.608 140.714Z" stroke="#263238" stroke-width="0.752" stroke-linecap="round" stroke-linejoin="round"/>
<path opacity="0.2" d="M236.316 126.02L236.699 129.502" stroke="white" stroke-width="0.752" stroke-linecap="round" stroke-linejoin="round"/>
<path opacity="0.2" d="M236.933 131.578L237.752 138.932" stroke="white" stroke-width="0.752" stroke-linecap="round" stroke-linejoin="round"/>
<path d="M180.681 178.005L178.304 178.27C177.944 178.31 177.582 178.205 177.298 177.978C177.015 177.752 176.833 177.422 176.792 177.061L176.219 171.912L181.308 171.344L181.884 176.509C181.92 176.866 181.814 177.223 181.589 177.503C181.364 177.783 181.038 177.963 180.681 178.005Z" fill="#999999" stroke="#263238" stroke-width="0.752" stroke-linecap="round" stroke-linejoin="round"/>
<path d="M178.72 185.659L181.904 185.304L181.087 177.972L177.903 178.327L178.72 185.659Z" fill="#757575" stroke="#263238" stroke-width="0.752" stroke-linecap="round" stroke-linejoin="round"/>
<path d="M175.592 171.983L182.142 171.246L183.939 168.238L173.17 169.441L175.592 171.983Z" fill="#757575" stroke="#263238" stroke-width="0.752" stroke-linecap="round" stroke-linejoin="round"/>
<path d="M194.016 160.244L184.992 161.244L181.984 151.776H180.706L183.714 161.635C183.463 161.665 183.235 161.792 183.077 161.989C182.92 162.186 182.846 162.437 182.871 162.688L183.089 164.613C183.167 165.242 183.488 165.816 183.985 166.21C184.482 166.604 185.114 166.786 185.744 166.718L193.475 165.861C193.773 165.825 194.045 165.673 194.232 165.438C194.419 165.203 194.506 164.904 194.475 164.605L194.016 160.244Z" fill="#999999" stroke="#263238" stroke-width="0.752" stroke-linecap="round" stroke-linejoin="round"/>
<path d="M194.768 164.981L194.309 165.027C193.996 165.062 193.681 164.984 193.421 164.805C193.162 164.627 192.975 164.361 192.895 164.056L190.256 153.664C190.129 153.177 189.846 152.745 189.451 152.433C189.056 152.121 188.571 151.946 188.068 151.934L180.675 151.746C180.401 151.737 180.139 151.629 179.937 151.443C179.736 151.257 179.608 151.004 179.578 150.731C179.544 150.432 179.63 150.132 179.818 149.896C180.005 149.661 180.279 149.509 180.578 149.475L181.503 149.377L188.835 149.686C189.709 149.721 190.549 150.039 191.227 150.592C191.905 151.145 192.385 151.904 192.595 152.754L195.385 164.094C195.404 164.193 195.403 164.295 195.383 164.393C195.362 164.492 195.322 164.586 195.264 164.668C195.207 164.751 195.133 164.822 195.048 164.875C194.963 164.929 194.867 164.965 194.768 164.981Z" fill="#BFBFBF" stroke="#263238" stroke-width="0.752" stroke-linecap="round" stroke-linejoin="round"/>
<path d="M150.107 132.164L160.409 165.823L183.548 163.244L184.045 159.574L178.39 140.917L174.63 128.381C174.389 127.593 173.883 126.913 173.198 126.455C172.512 125.997 171.69 125.79 170.87 125.87L152.919 127.84C152.382 127.896 151.867 128.083 151.418 128.385C150.97 128.686 150.602 129.093 150.348 129.569C150.138 129.965 150.009 130.397 149.968 130.843C149.927 131.288 149.974 131.737 150.107 132.164Z" fill="#6299FF"/>
<mask id="mask2_350_2038" style="mask-type:luminance" maskUnits="userSpaceOnUse" x="149" y="125" width="36" height="41">
<path d="M150.107 132.164L160.409 165.823L183.548 163.244L184.045 159.574L178.39 140.917L174.63 128.381C174.389 127.593 173.883 126.913 173.198 126.455C172.512 125.997 171.69 125.79 170.87 125.87L152.919 127.84C152.382 127.896 151.867 128.083 151.418 128.385C150.97 128.686 150.602 129.093 150.348 129.569C150.138 129.965 150.009 130.397 149.968 130.843C149.927 131.288 149.974 131.737 150.107 132.164Z" fill="white"/>
</mask>
<g mask="url(#mask2_350_2038)">
<path opacity="0.2" d="M150.107 132.164L160.409 165.824L183.548 163.244L184.045 159.574L178.39 140.917L159.078 143.068L155.438 131.194C155.261 130.611 154.886 130.108 154.378 129.771C153.871 129.434 153.262 129.283 152.656 129.344L150.4 129.592C149.966 130.377 149.861 131.302 150.107 132.164Z" fill="black"/>
</g>
<path d="M150.107 132.164L160.409 165.823L183.548 163.244L184.045 159.574L178.39 140.917L174.63 128.381C174.389 127.593 173.883 126.913 173.198 126.455C172.512 125.997 171.69 125.79 170.87 125.87L152.919 127.84C152.382 127.896 151.867 128.083 151.418 128.385C150.97 128.686 150.602 129.093 150.348 129.569C150.138 129.965 150.009 130.397 149.968 130.843C149.927 131.288 149.974 131.737 150.107 132.164Z" stroke="#263238" stroke-width="0.752" stroke-linecap="round" stroke-linejoin="round"/>
<path d="M168.373 192.016C173.118 188.857 187.835 187.218 193.189 189.256L195.445 188.346C189.752 185.405 181.909 185.285 181.909 185.285L178.457 185.669C178.457 185.669 170.87 187.504 165.959 191.625L168.373 192.016Z" fill="#999999" stroke="#263238" stroke-width="0.752" stroke-linecap="round" stroke-linejoin="round"/>
<path d="M193.024 190.632C193.082 191.162 193.349 191.646 193.765 191.979C194.181 192.312 194.712 192.466 195.242 192.407C195.771 192.348 196.256 192.081 196.589 191.665C196.922 191.249 197.075 190.718 197.017 190.188C196.988 189.926 196.907 189.672 196.78 189.441C196.653 189.21 196.481 189.006 196.275 188.842C196.069 188.677 195.833 188.554 195.579 188.481C195.326 188.407 195.06 188.385 194.798 188.414C194.536 188.443 194.282 188.523 194.051 188.651C193.82 188.778 193.616 188.949 193.451 189.155C193.287 189.361 193.164 189.598 193.091 189.851C193.017 190.104 192.994 190.37 193.024 190.632Z" fill="#BFBFBF" stroke="#263238" stroke-width="0.752" stroke-linecap="round" stroke-linejoin="round"/>
<path d="M164.816 193.775C164.867 194.167 165.033 194.535 165.292 194.834C165.552 195.132 165.893 195.347 166.274 195.451C166.655 195.556 167.059 195.546 167.434 195.423C167.81 195.299 168.14 195.068 168.385 194.757C168.629 194.446 168.776 194.07 168.808 193.676C168.84 193.283 168.754 192.888 168.563 192.542C168.371 192.197 168.082 191.915 167.731 191.733C167.38 191.551 166.983 191.477 166.59 191.519C166.325 191.549 166.068 191.631 165.835 191.761C165.602 191.891 165.396 192.066 165.231 192.276C165.066 192.486 164.944 192.727 164.873 192.984C164.802 193.241 164.782 193.51 164.816 193.775Z" fill="#BFBFBF" stroke="#263238" stroke-width="0.752" stroke-linecap="round" stroke-linejoin="round"/>
<path d="M168.756 170.922L191.399 168.403C192.37 168.294 193.311 167.995 194.167 167.523C195.023 167.051 195.777 166.414 196.387 165.65C196.997 164.886 197.45 164.009 197.72 163.07C197.991 162.131 198.074 161.147 197.964 160.176C197.934 159.886 197.847 159.605 197.707 159.35C197.568 159.094 197.379 158.868 197.151 158.687C196.924 158.505 196.663 158.37 196.382 158.29C196.102 158.21 195.809 158.186 195.52 158.221L162.432 161.906C162.146 161.937 161.869 162.025 161.617 162.164C161.365 162.303 161.143 162.49 160.963 162.715C160.784 162.94 160.65 163.198 160.571 163.475C160.491 163.752 160.467 164.041 160.499 164.327C160.603 165.304 160.9 166.251 161.372 167.113C161.844 167.975 162.483 168.735 163.251 169.348C164.019 169.962 164.901 170.417 165.846 170.687C166.791 170.957 167.78 171.037 168.756 170.922Z" fill="#6299FF"/>
<mask id="mask3_350_2038" style="mask-type:luminance" maskUnits="userSpaceOnUse" x="160" y="158" width="39" height="13">
<path d="M168.756 170.922L191.399 168.403C192.37 168.294 193.311 167.995 194.167 167.523C195.023 167.051 195.777 166.414 196.387 165.65C196.997 164.886 197.45 164.009 197.72 163.07C197.991 162.131 198.074 161.147 197.964 160.176C197.934 159.886 197.847 159.605 197.707 159.35C197.568 159.094 197.379 158.868 197.151 158.687C196.924 158.505 196.663 158.37 196.382 158.29C196.102 158.21 195.809 158.186 195.52 158.221L162.432 161.906C162.146 161.937 161.869 162.025 161.617 162.164C161.365 162.303 161.143 162.49 160.963 162.715C160.784 162.94 160.65 163.198 160.571 163.475C160.491 163.752 160.467 164.041 160.499 164.327C160.603 165.304 160.9 166.251 161.372 167.113C161.844 167.975 162.483 168.735 163.251 169.348C164.019 169.962 164.901 170.417 165.846 170.687C166.791 170.957 167.78 171.037 168.756 170.922Z" fill="white"/>
</mask>
<g mask="url(#mask3_350_2038)">
<path opacity="0.2" d="M160.522 164.199L160.59 164.808C160.796 166.649 161.724 168.332 163.171 169.489C164.618 170.645 166.464 171.179 168.305 170.975L191.843 168.35C192.754 168.25 193.637 167.971 194.44 167.529C195.244 167.087 195.952 166.491 196.525 165.775C197.098 165.059 197.524 164.237 197.779 163.357C198.033 162.476 198.112 161.553 198.009 160.642L197.941 160.025C197.9 159.634 197.746 159.262 197.498 158.956C197.25 158.651 196.918 158.424 196.543 158.303L196.671 159.439C196.742 160.096 196.551 160.754 196.138 161.27C195.725 161.786 195.124 162.117 194.467 162.191L173.584 164.522C172.926 164.594 172.267 164.403 171.75 163.99C171.233 163.577 170.9 162.976 170.824 162.319L170.681 160.988L162.349 161.913C161.804 161.975 161.306 162.251 160.964 162.679C160.622 163.107 160.463 163.654 160.522 164.199Z" fill="black"/>
</g>
<path d="M168.756 170.922L191.399 168.403C192.37 168.294 193.311 167.995 194.167 167.523C195.023 167.051 195.777 166.414 196.387 165.65C196.997 164.886 197.45 164.009 197.72 163.07C197.991 162.131 198.074 161.147 197.964 160.176C197.934 159.886 197.847 159.605 197.707 159.35C197.568 159.094 197.379 158.868 197.151 158.687C196.924 158.505 196.663 158.37 196.382 158.29C196.102 158.21 195.809 158.186 195.52 158.221L162.432 161.906C162.146 161.937 161.869 162.025 161.617 162.164C161.365 162.303 161.143 162.49 160.963 162.715C160.784 162.94 160.65 163.198 160.571 163.475C160.491 163.752 160.467 164.041 160.499 164.327C160.603 165.304 160.9 166.251 161.372 167.113C161.844 167.975 162.483 168.735 163.251 169.348C164.019 169.962 164.901 170.417 165.846 170.687C166.791 170.957 167.78 171.037 168.756 170.922Z" stroke="#263238" stroke-width="0.752" stroke-linecap="round" stroke-linejoin="round"/>
<path d="M168.696 163.064L159.717 164.064L156.664 154.596L155.393 154.559L158.401 164.425C158.276 164.438 158.155 164.476 158.045 164.536C157.935 164.596 157.838 164.677 157.76 164.775C157.682 164.873 157.624 164.986 157.589 165.106C157.554 165.227 157.544 165.353 157.559 165.478L157.769 167.403C157.843 168.039 158.165 168.62 158.665 169.02C159.165 169.42 159.802 169.606 160.439 169.539L168.17 168.674C168.317 168.658 168.461 168.613 168.591 168.541C168.721 168.47 168.836 168.374 168.929 168.258C169.022 168.142 169.091 168.008 169.132 167.865C169.174 167.723 169.186 167.573 169.17 167.425L168.696 163.064Z" fill="#999999" stroke="#263238" stroke-width="0.752" stroke-linecap="round" stroke-linejoin="round"/>
<path d="M169.486 167.794L169.02 167.846C168.707 167.881 168.392 167.801 168.133 167.622C167.874 167.442 167.69 167.174 167.614 166.869L164.974 156.484C164.845 155.997 164.562 155.565 164.168 155.252C163.773 154.94 163.289 154.762 162.786 154.747L155.394 154.559C155.119 154.552 154.856 154.446 154.653 154.261C154.45 154.076 154.321 153.824 154.288 153.551C154.256 153.251 154.345 152.951 154.533 152.715C154.722 152.48 154.996 152.329 155.296 152.295L156.213 152.19L163.553 152.498C164.428 152.535 165.268 152.854 165.946 153.409C166.624 153.963 167.103 154.723 167.313 155.574L170.095 166.944C170.121 167.042 170.124 167.145 170.107 167.245C170.089 167.345 170.05 167.44 169.992 167.523C169.934 167.607 169.859 167.677 169.772 167.729C169.684 167.781 169.587 167.813 169.486 167.824" fill="#BFBFBF"/>
<path d="M169.486 167.794L169.02 167.846C168.707 167.881 168.392 167.801 168.133 167.622C167.874 167.442 167.69 167.174 167.614 166.869L164.974 156.484C164.845 155.997 164.562 155.565 164.168 155.252C163.773 154.94 163.289 154.762 162.786 154.747L155.394 154.559C155.119 154.552 154.856 154.446 154.653 154.261C154.45 154.076 154.321 153.824 154.288 153.551C154.256 153.251 154.345 152.951 154.533 152.715C154.722 152.48 154.996 152.329 155.296 152.295L156.213 152.19L163.553 152.498C164.428 152.535 165.268 152.854 165.946 153.409C166.624 153.963 167.103 154.723 167.313 155.574L170.095 166.944C170.121 167.042 170.124 167.145 170.107 167.245C170.089 167.345 170.05 167.44 169.992 167.523C169.934 167.607 169.859 167.677 169.772 167.729C169.684 167.781 169.587 167.813 169.486 167.824" stroke="#263238" stroke-width="0.752" stroke-linecap="round" stroke-linejoin="round"/>
<path d="M185.556 144.234L177.186 145.136L177.239 145.587C177.247 145.697 177.278 145.804 177.328 145.902C177.379 146 177.449 146.087 177.534 146.157C177.619 146.227 177.717 146.279 177.823 146.311C177.928 146.342 178.039 146.352 178.149 146.339H178.367L205.702 143.294C205.772 143.286 205.84 143.265 205.902 143.231C205.964 143.197 206.019 143.151 206.063 143.096C206.107 143.04 206.14 142.977 206.159 142.909C206.178 142.841 206.184 142.77 206.176 142.7L206.093 141.948L185.556 144.234Z" fill="#999999" stroke="#263238" stroke-width="0.752" stroke-linecap="round" stroke-linejoin="round"/>
<path d="M210.981 127.284L209.62 140.82C209.592 141.102 209.468 141.366 209.268 141.568C209.068 141.769 208.804 141.895 208.522 141.925L187.428 144.279C187.303 144.292 187.176 144.277 187.058 144.235C186.939 144.192 186.831 144.124 186.742 144.034C186.654 143.945 186.586 143.837 186.545 143.717C186.503 143.598 186.489 143.472 186.503 143.346L188.007 129.81C188.038 129.532 188.163 129.272 188.361 129.074C188.559 128.875 188.819 128.751 189.098 128.72L210.056 126.336C210.183 126.321 210.312 126.335 210.433 126.378C210.553 126.42 210.663 126.49 210.752 126.582C210.841 126.673 210.909 126.784 210.948 126.906C210.988 127.028 210.999 127.157 210.981 127.284Z" fill="#BFBFBF" stroke="#263238" stroke-width="0.752" stroke-linecap="round" stroke-linejoin="round"/>
<path d="M199.386 133.728L201.017 133.548L201.642 134.961L200.634 136.548L199.002 136.729L198.378 135.322L199.386 133.728Z" fill="white" stroke="#263238" stroke-width="0.752" stroke-linecap="round" stroke-linejoin="round"/>
<path d="M231.841 123.223L231.661 121.591L219.479 122.96L219.847 126.253L220.494 132.104L232.676 130.743L231.841 123.223Z" fill="white"/>
<mask id="mask4_350_2038" style="mask-type:luminance" maskUnits="userSpaceOnUse" x="219" y="121" width="14" height="12">
<path d="M231.841 123.223L231.661 121.591L219.479 122.96L219.847 126.253L220.494 132.104L232.676 130.743L231.841 123.223Z" fill="white"/>
</mask>
<g mask="url(#mask4_350_2038)">
<path opacity="0.2" d="M220.425 131.557L228.138 130.698L227.181 122.11L219.468 122.97L220.425 131.557Z" fill="black"/>
</g>
<path d="M231.841 123.223L231.661 121.591L219.479 122.96L219.847 126.253L220.494 132.104L232.676 130.743L231.841 123.223Z" stroke="#263238" stroke-width="0.752" stroke-linecap="round" stroke-linejoin="round"/>
<path d="M227.187 122.087L227.277 122.899" stroke="#263238" stroke-width="0.752" stroke-linecap="round" stroke-linejoin="round"/>
<path d="M221.193 141.993L219.802 129.487L226.322 124.554L232.782 123.84L234.624 140.369L221.193 141.993Z" fill="#6299FF"/>
<mask id="mask5_350_2038" style="mask-type:luminance" maskUnits="userSpaceOnUse" x="219" y="123" width="16" height="19">
<path d="M221.193 141.993L219.802 129.487L226.322 124.554L232.782 123.84L234.624 140.369L221.193 141.993Z" fill="white"/>
</mask>
<g mask="url(#mask5_350_2038)">
<path opacity="0.2" d="M226.322 124.554L228.164 141.15L221.186 141.925L219.802 129.487L226.322 124.554Z" fill="black"/>
</g>
<path d="M221.193 141.993L219.802 129.487L226.322 124.554L232.782 123.84L234.624 140.369L221.193 141.993Z" stroke="#263238" stroke-width="0.752" stroke-linecap="round" stroke-linejoin="round"/>
<path d="M226.901 127.291L227.292 130.773" stroke="#263238" stroke-width="0.752" stroke-linecap="round" stroke-linejoin="round"/>
<path d="M227.518 132.856L228.337 140.211" stroke="#263238" stroke-width="0.752" stroke-linecap="round" stroke-linejoin="round"/>
<path d="M218.154 144.432L214.948 144.79L219.948 189.647L223.154 189.289L218.154 144.432Z" fill="#6299FF"/>
<mask id="mask6_350_2038" style="mask-type:luminance" maskUnits="userSpaceOnUse" x="214" y="144" width="10" height="46">
<path d="M218.154 144.432L214.948 144.789L219.948 189.647L223.154 189.289L218.154 144.432Z" fill="white"/>
</mask>
<g mask="url(#mask6_350_2038)">
<path opacity="0.2" d="M218.154 144.432L214.948 144.789L219.948 189.647L223.154 189.289L218.154 144.432Z" fill="black"/>
</g>
<path d="M218.154 144.432L214.948 144.79L219.948 189.647L223.154 189.289L218.154 144.432Z" stroke="#263238" stroke-width="0.752" stroke-linecap="round" stroke-linejoin="round"/>
<path d="M198.476 146.64L246.122 141.331L251.116 186.188L247.912 186.541L243.212 144.316L198.769 149.272L198.476 146.64Z" fill="#6299FF" stroke="#263238" stroke-width="0.752" stroke-linecap="round" stroke-linejoin="round"/>
<path d="M236.73 139.85L166.952 147.625L167.222 150.099L247.468 141.166L247.19 138.684L241.332 139.338L236.73 139.85Z" fill="#6299FF"/>
<mask id="mask7_350_2038" style="mask-type:luminance" maskUnits="userSpaceOnUse" x="166" y="138" width="82" height="13">
<path d="M236.73 139.85L166.952 147.625L167.222 150.099L247.468 141.166L247.19 138.684L241.332 139.338L236.73 139.85Z" fill="white"/>
</mask>
<g mask="url(#mask7_350_2038)">
<path opacity="0.6" d="M236.73 139.85L166.952 147.625L167.222 150.099L247.468 141.166L247.19 138.684L241.332 139.338L236.73 139.85Z" fill="white"/>
</g>
<path d="M236.73 139.85L166.952 147.625L167.222 150.099L247.468 141.166L247.19 138.684L241.332 139.338L236.73 139.85Z" stroke="#263238" stroke-width="0.752" stroke-linecap="round" stroke-linejoin="round"/>
<path d="M173.576 194.821L168.576 149.964L200.46 146.414L205.461 191.271L202.25 191.625L197.55 149.407L172.072 152.242L176.78 194.467L173.576 194.821Z" fill="#6299FF"/>
<mask id="mask8_350_2038" style="mask-type:luminance" maskUnits="userSpaceOnUse" x="168" y="146" width="38" height="49">
<path d="M173.576 194.821L168.576 149.964L200.46 146.414L205.461 191.271L202.25 191.625L197.55 149.407L172.072 152.242L176.78 194.467L173.576 194.821Z" fill="white"/>
</mask>
<g mask="url(#mask8_350_2038)">
<path opacity="0.2" d="M173.576 194.821L168.576 149.964L200.46 146.414L205.461 191.271L202.25 191.625L197.55 149.407L172.072 152.242L176.78 194.467L173.576 194.821Z" fill="white"/>
</g>
<path d="M173.576 194.821L168.576 149.964L200.46 146.414L205.461 191.271L202.25 191.625L197.55 149.407L172.072 152.242L176.78 194.467L173.576 194.821Z" stroke="#263238" stroke-width="0.752" stroke-linecap="round" stroke-linejoin="round"/>
<path d="M249.446 153.025C246.885 150.978 243.784 149.72 240.521 149.403C237.257 149.087 233.973 149.726 231.066 151.242C228.159 152.758 225.756 155.087 224.148 157.944C222.541 160.801 221.798 164.064 222.011 167.336C222.224 170.607 223.384 173.747 225.348 176.371C227.313 178.996 229.998 180.993 233.077 182.12C236.156 183.246 239.495 183.454 242.69 182.717C245.885 181.98 248.796 180.33 251.07 177.968L253.619 180.006L255.56 177.577L253.01 175.54C255.328 172.017 256.248 167.756 255.589 163.592C254.929 159.427 252.739 155.659 249.446 153.025ZM250.416 175.479C248.582 177.761 246.112 179.448 243.32 180.326C240.527 181.204 237.537 181.234 234.727 180.412C231.917 179.591 229.414 177.954 227.535 175.71C225.655 173.466 224.483 170.714 224.168 167.804C223.852 164.893 224.407 161.955 225.761 159.36C227.116 156.764 229.21 154.629 231.778 153.224C234.346 151.819 237.274 151.208 240.19 151.467C243.106 151.726 245.879 152.843 248.16 154.679C249.675 155.896 250.935 157.399 251.869 159.104C252.802 160.808 253.39 162.68 253.6 164.612C253.809 166.543 253.636 168.498 253.09 170.362C252.543 172.227 251.635 173.966 250.416 175.479Z" fill="#757575" stroke="#263238" stroke-width="0.752" stroke-linecap="round" stroke-linejoin="round"/>
<path d="M274.909 195.039C274.715 195.283 274.474 195.487 274.201 195.639C273.928 195.79 273.628 195.886 273.318 195.921C273.007 195.956 272.693 195.929 272.393 195.842C272.093 195.756 271.813 195.61 271.57 195.415L253.041 180.6C252.988 180.559 252.945 180.507 252.913 180.448C252.881 180.39 252.86 180.325 252.853 180.259C252.846 180.192 252.853 180.125 252.872 180.061C252.891 179.997 252.923 179.938 252.965 179.886L255.297 176.968C255.381 176.863 255.503 176.795 255.637 176.78C255.771 176.765 255.905 176.802 256.011 176.885L274.54 191.7C275.032 192.094 275.347 192.667 275.416 193.293C275.485 193.919 275.302 194.547 274.909 195.039Z" fill="#999999" stroke="#263238" stroke-width="0.752" stroke-linecap="round" stroke-linejoin="round"/>
<path d="M150.46 197.4L148.287 197.641L138.503 159.567L140.602 159.026L150.46 197.4Z" fill="#999999" stroke="#263238" stroke-width="0.752" stroke-linecap="round" stroke-linejoin="round"/>
<path d="M149.078 142.001L123.084 148.68L127.27 164.973L153.265 158.294L149.078 142.001Z" fill="#263238"/>
<path d="M129.757 150.058L129.803 150.231C129.88 150.418 129.898 150.625 129.853 150.823C129.809 151.021 129.705 151.2 129.554 151.336C130.013 151.396 130.306 151.712 130.397 152.231L130.502 152.63C130.57 152.785 130.601 152.954 130.592 153.123C130.583 153.292 130.534 153.457 130.448 153.604C130.363 153.75 130.245 153.875 130.103 153.967C129.96 154.059 129.798 154.116 129.63 154.134L128.419 154.442L127.163 149.547L128.321 149.208C128.47 149.142 128.633 149.112 128.797 149.121C128.96 149.13 129.118 149.179 129.259 149.262C129.4 149.345 129.518 149.461 129.605 149.599C129.692 149.738 129.744 149.895 129.757 150.058ZM128.111 150.058L128.441 151.359L128.742 151.276C129.036 151.208 129.178 151.036 129.073 150.644L129.005 150.366C128.915 150.02 128.757 149.892 128.479 149.968L128.111 150.058ZM128.622 152.058L129.013 153.562L129.449 153.449C129.712 153.382 129.818 153.224 129.727 152.863L129.615 152.434C129.502 151.983 129.314 151.878 128.968 151.968L128.622 152.058Z" fill="#6299FF"/>
<path d="M282.624 103.197L247.408 107.115C246.819 107.185 246.282 107.484 245.912 107.947C245.542 108.41 245.369 109 245.43 109.589L246.814 121.99C246.884 122.577 247.181 123.113 247.643 123.483C248.104 123.853 248.692 124.027 249.28 123.967L253.68 123.479L250.672 130.999L256.567 123.178L284.459 120.072C285.047 120.002 285.585 119.703 285.955 119.24C286.325 118.777 286.498 118.187 286.437 117.598L285.053 105.19C284.987 104.607 284.696 104.073 284.242 103.701C283.789 103.329 283.209 103.148 282.624 103.197Z" fill="white" stroke="#263238" stroke-width="0.752" stroke-linecap="round" stroke-linejoin="round"/>
<path d="M252.537 117.372C252.455 117.192 252.409 116.998 252.401 116.801L252.319 116.049C252.274 115.605 252.108 115.462 251.77 115.5H251.514L251.725 117.425L250.973 117.507L250.446 112.77L251.567 112.649C251.713 112.606 251.868 112.598 252.018 112.627C252.168 112.656 252.308 112.72 252.428 112.814C252.549 112.908 252.644 113.03 252.708 113.169C252.771 113.308 252.8 113.46 252.793 113.612L252.838 113.988C252.885 114.175 252.873 114.372 252.805 114.552C252.736 114.733 252.614 114.887 252.454 114.996C252.845 115.109 253.003 115.447 253.063 115.936L253.138 116.688C253.149 116.887 253.2 117.081 253.289 117.259L252.537 117.372ZM251.273 113.401L251.439 114.86L251.725 114.823C252.003 114.823 252.161 114.657 252.116 114.274L252.063 113.808C252.025 113.469 251.898 113.334 251.634 113.364L251.273 113.401Z" fill="#263238"/>
<path d="M254.176 114.424L255.199 114.304L255.274 114.981L254.251 115.094L254.402 116.485L255.688 116.342L255.763 117.019L253.732 117.244L253.206 112.507L255.236 112.281L255.312 112.958L254.026 113.101L254.176 114.424Z" fill="#263238"/>
<path d="M255.725 113.372C255.703 113.221 255.712 113.067 255.751 112.919C255.789 112.772 255.857 112.634 255.951 112.513C256.044 112.392 256.16 112.292 256.293 112.217C256.426 112.142 256.573 112.095 256.725 112.079C256.876 112.062 257.03 112.076 257.176 112.12C257.322 112.164 257.458 112.237 257.575 112.334C257.692 112.432 257.789 112.552 257.858 112.687C257.928 112.823 257.97 112.971 257.981 113.123L258.26 115.582C258.287 115.811 258.261 116.042 258.184 116.259C258.229 116.35 258.29 116.357 258.41 116.342H258.478L258.553 117.004H258.448C258.323 117.033 258.192 117.025 258.072 116.981C257.952 116.937 257.847 116.859 257.771 116.756C257.609 116.831 257.436 116.879 257.259 116.898C257.104 116.929 256.944 116.924 256.791 116.884C256.638 116.845 256.496 116.772 256.375 116.67C256.253 116.568 256.157 116.441 256.091 116.297C256.026 116.153 255.993 115.996 255.996 115.838L255.725 113.372ZM256.748 115.801C256.786 116.139 256.951 116.252 257.184 116.222C257.417 116.192 257.553 116.056 257.515 115.718L257.229 113.161C257.192 112.823 257.034 112.71 256.793 112.732C256.553 112.755 256.425 112.905 256.462 113.244L256.748 115.801Z" fill="#263238"/>
<path d="M259.041 111.853L259.447 115.507C259.485 115.846 259.65 115.951 259.884 115.921C260.117 115.891 260.26 115.755 260.222 115.425L259.816 111.77L260.515 111.687L260.921 115.297C260.938 115.445 260.925 115.595 260.883 115.738C260.841 115.881 260.772 116.014 260.679 116.131C260.585 116.247 260.47 116.344 260.34 116.415C260.209 116.487 260.066 116.533 259.917 116.549C259.769 116.565 259.619 116.552 259.476 116.51C259.333 116.469 259.2 116.399 259.083 116.306C258.967 116.213 258.87 116.098 258.799 115.967C258.727 115.836 258.682 115.693 258.665 115.545L258.259 111.935L259.041 111.853Z" fill="#263238"/>
<path d="M261.019 111.634L261.771 111.552L262.297 116.282L261.545 116.364L261.019 111.634Z" fill="#263238"/>
<path d="M264.388 116.049C264.306 115.869 264.26 115.675 264.253 115.477L264.17 114.725C264.125 114.289 263.96 114.139 263.621 114.176H263.366L263.576 116.101L262.824 116.184L262.298 111.454L263.418 111.326C263.565 111.284 263.72 111.278 263.87 111.307C264.02 111.337 264.16 111.402 264.28 111.497C264.4 111.592 264.495 111.714 264.558 111.853C264.622 111.991 264.651 112.144 264.644 112.296L264.689 112.665C264.738 112.852 264.727 113.049 264.658 113.229C264.589 113.41 264.466 113.565 264.306 113.672C264.697 113.785 264.855 114.123 264.915 114.62L264.998 115.372C265.002 115.568 265.051 115.761 265.14 115.936L264.388 116.049ZM263.125 112.086L263.29 113.537H263.576C263.855 113.537 264.012 113.364 263.967 112.988L263.915 112.522C263.877 112.183 263.749 112.048 263.486 112.078L263.125 112.086Z" fill="#263238"/>
<path d="M265.99 113.101L267.013 112.988L267.088 113.665L266.065 113.778L266.216 115.161L267.502 115.018L267.577 115.695L265.554 115.921L265.02 111.191L267.05 110.965L267.126 111.642L265.84 111.785L265.99 113.101Z" fill="#263238"/>
<path d="M269.449 114.101L269.577 110.687L270.615 110.574L271.141 115.304L270.435 115.387L270.059 111.988L269.968 115.432L269.261 115.515L268.352 112.229L268.728 115.575L268.073 115.643L267.547 110.913L268.585 110.8L269.449 114.101Z" fill="#263238"/>
<path d="M272.134 112.417L273.149 112.304L273.224 112.981L272.209 113.093L272.359 114.477L273.645 114.334L273.72 115.011L271.69 115.237L271.164 110.506L273.194 110.281L273.269 110.958L271.983 111.101L272.134 112.417Z" fill="#263238"/>
<path d="M274.48 111.454L274.864 114.883L274.194 114.951L273.668 110.221L274.6 110.115L275.668 112.868L275.352 110.033L276.014 109.958L276.541 114.688L275.789 114.778L274.48 111.454Z" fill="#263238"/>
<path d="M276.322 109.927L278.623 109.672L278.699 110.348L277.947 110.439L278.398 114.492L277.646 114.575L277.195 110.521L276.443 110.604L276.322 109.927Z" fill="#263238"/>
<path d="M279.939 109.476C280.691 109.393 281.083 109.784 281.165 110.544V110.687L280.466 110.77V110.574C280.428 110.236 280.278 110.123 280.037 110.145C279.797 110.168 279.684 110.318 279.721 110.657C279.759 110.995 279.939 111.236 280.473 111.612C280.735 111.749 280.961 111.947 281.131 112.189C281.301 112.431 281.411 112.71 281.451 113.003C281.49 113.153 281.496 113.309 281.467 113.461C281.438 113.613 281.376 113.757 281.284 113.881C281.192 114.006 281.074 114.109 280.938 114.182C280.801 114.255 280.65 114.297 280.496 114.304C280.342 114.332 280.183 114.325 280.031 114.284C279.88 114.243 279.74 114.169 279.621 114.066C279.502 113.964 279.407 113.836 279.344 113.693C279.281 113.549 279.25 113.393 279.255 113.236V112.943L279.962 112.868L280 113.206C280.037 113.544 280.195 113.65 280.436 113.62C280.676 113.59 280.804 113.454 280.767 113.116C280.729 112.777 280.549 112.529 280.015 112.161C279.753 112.023 279.527 111.826 279.357 111.584C279.187 111.342 279.077 111.063 279.037 110.77C278.887 110.025 279.21 109.551 279.939 109.476Z" fill="#263238"/>
<path d="M95.0679 203.566L309.313 179.705" stroke="#263238" stroke-width="0.752" stroke-linecap="round" stroke-linejoin="round"/>
<path d="M96.6246 200.551C95.6652 200.112 94.6153 199.908 93.5614 199.955C92.5076 200.002 91.4801 200.299 90.5635 200.822C88.9788 201.775 87.7383 203.208 87.0216 204.912C84.5174 210.131 77.6216 222.081 76.4184 225.51C75.2152 228.939 72.6584 238.422 69.8234 242.528C66.9883 246.633 65.6272 252.672 65.6272 252.672L67.8832 309.974C69.0789 301.597 73.1472 291.926 73.1472 291.926C77.0559 289.598 80.3005 286.304 82.5698 282.361C83.2527 281.548 83.857 280.671 84.3746 279.744C88.5406 272.382 90.007 259.485 89.6386 249.566C89.255 238.324 92.6014 233.022 97.9106 222.893C103.22 212.763 100.58 202.506 96.6246 200.551Z" fill="white"/>
<path opacity="0.4" d="M96.6244 200.551C95.6617 200.125 94.6136 199.928 93.5621 199.975C92.5106 200.022 91.4842 200.312 90.5633 200.822C93.8345 201.506 98.1585 202.912 97.3313 205.431C96.0379 209.409 91.2326 203.927 89.1044 205.92C86.9763 207.913 79.4713 219.193 84.9158 223.63C90.3603 228.067 89.1947 236.128 85.8031 238.572C82.4116 241.016 85.006 246.227 86.6228 254.567C87.6079 259.613 85.8708 271.276 84.3668 279.706C88.5329 272.344 89.9993 259.447 89.6308 249.529C89.2473 238.286 92.5937 232.985 97.9028 222.855C103.212 212.726 100.572 202.371 96.6244 200.551Z" fill="#6299FF"/>
<path d="M67.8907 309.937C69.0864 301.567 73.1547 291.889 73.1547 291.889C77.0645 289.56 80.3113 286.266 82.5848 282.324C88.112 275.804 90.0371 260.764 89.6536 249.529C89.2701 238.294 92.6616 233.022 97.9256 222.848C103.19 212.673 101.001 202.627 96.6096 200.551C93.549 199.107 89.5182 199.694 87.0066 204.913C84.4949 210.132 77.6066 222.081 76.4034 225.502C75.2002 228.924 72.6434 238.422 69.8083 242.535C66.9733 246.649 65.6272 252.672 65.6272 252.672" stroke="#263238" stroke-width="0.752" stroke-linecap="round" stroke-linejoin="round"/>
<path d="M81.2161 226.231C81.2161 226.231 85.8258 226.374 87.9841 227.976" stroke="#263238" stroke-width="0.752" stroke-linecap="round" stroke-linejoin="round"/>
<path d="M63.8748 251.574C63.8748 251.574 62.8596 249.468 67.4167 247.107" stroke="#263238" stroke-width="0.752" stroke-linecap="round" stroke-linejoin="round"/>
<path opacity="0.2" d="M225.299 208.65C234.489 208.725 245.987 250.145 249.566 254.913C249.566 254.913 300.89 256.68 307.358 263.839C313.825 270.998 310.621 277.044 314.878 283.835C319.134 290.625 320.352 302.071 320.352 302.071L331.632 321.104L283.286 344.265C283.286 344.265 257.455 329.466 251.153 326.127C244.851 322.788 226.179 315.494 221.216 306.064C216.253 296.634 216.005 287.783 214.937 283.865C213.869 279.947 234.624 268.216 234.624 268.216L225.299 208.65Z" fill="black" fill-opacity="0.7"/>
<path d="M338.069 324.864C333.903 321.014 329.527 316.923 325.924 313.539C321.33 309.222 317.998 306.072 317.998 306.072C315.261 300.326 312.855 298.394 309.824 293.859C306.794 289.325 307.26 284.542 306.545 278.21C305.831 271.878 303.267 266.426 301.695 262.696C300.123 258.966 299.996 255.109 299.68 254.274C299.364 253.439 294.604 249.762 292.4 246.754C291.412 245.413 290.205 244.248 288.828 243.31C287.289 242.218 285.518 241.494 283.655 241.197C282.882 241.093 282.1 241.078 281.323 241.151C279.792 241.396 278.283 241.765 276.811 242.257C274.871 242.723 269.968 240.354 267.141 240.467C266.614 240.467 266.095 240.542 265.569 240.618C263.135 241.072 260.742 241.719 258.41 242.55C255.861 243.302 252.221 241.633 249.589 241.437H249.536C248.951 241.373 248.358 241.448 247.807 241.655C245.318 242.701 240.557 244.295 240.557 244.295C240.557 244.295 239.332 241.054 238.023 236.564C237.798 235.812 237.564 235.06 237.316 234.308C236.399 231.571 235.399 229.157 234.782 226.886C234.619 226.304 234.486 225.714 234.384 225.119C233.827 221.833 233.12 219.328 231.834 214.41L231.699 213.884C231.293 212.38 230.947 210.876 230.563 209.552C229.608 206.364 228.307 204.153 224.991 204.424C222.073 204.664 220.479 206.529 220.396 211.462C220.314 216.396 219.374 216.268 220.675 223.149C221.976 230.029 221.494 234.722 222.54 238.121C223.585 241.52 224.427 248.401 224.427 248.401C222.976 248.062 221.915 248.89 221.825 249.484C221.735 250.078 222.036 255.597 222.186 259.56C222.314 263.08 219.998 266.915 219.419 269.502C219.419 269.502 219.419 269.547 219.419 269.562C219.354 269.841 219.316 270.126 219.306 270.412C219.223 272.938 220.765 277.932 222.314 284.422C223.863 290.911 223.818 297.958 226.495 301.913C227.048 302.71 227.726 303.414 228.503 303.996C231.721 306.47 236.925 308.027 242.257 311.96C248.912 316.885 253.672 320.54 257.613 321.736C260.44 322.608 261.809 323.541 262.644 325.007C262.977 325.65 263.23 326.332 263.396 327.037C263.772 328.398 264.772 329.293 266.449 330.722C269.072 332.915 271.491 335.341 273.676 337.971C275.721 340.408 279.105 345.176 282.7 350.477L338.069 324.864Z" fill="white"/>
<path opacity="0.4" d="M234.353 225.096C234.455 225.692 234.588 226.282 234.752 226.863C230.435 227.074 222.953 231.014 223.412 233.473C223.983 236.481 225.299 243.588 227.172 244.859C229.044 246.13 232.564 246.408 232.564 246.408C232.33 246.482 232.102 246.57 231.879 246.671L231.804 246.709C230.824 247.178 230.009 247.933 229.465 248.874C227.089 252.867 228.668 260.079 230.533 263.283C238.286 276.608 234 289.648 231.195 288.851C228.39 288.054 225.224 275.773 225.284 272.698C225.334 270.897 225.139 269.099 224.705 267.351C223.517 267.246 221.329 268.336 219.358 269.502C219.358 269.502 219.358 269.464 219.358 269.442C219.937 266.855 222.254 263.019 222.126 259.5C221.975 255.537 221.667 250.017 221.765 249.423C221.863 248.829 222.915 248.002 224.367 248.34C224.367 248.34 223.517 241.467 222.479 238.061C221.441 234.654 221.915 229.977 220.614 223.088C219.313 216.2 220.253 216.32 220.336 211.402C220.419 206.484 222.013 204.634 224.931 204.363C228.262 204.093 229.548 206.304 230.503 209.492C230.052 209.238 229.585 209.014 229.104 208.823C227.899 208.277 226.533 208.204 225.277 208.62C223.833 209.184 222.885 210.989 222.442 212.771C221.795 215.335 222.193 217.862 223.667 216.621C225.337 215.222 229.322 214.598 231.781 214.365C233.12 219.306 233.797 221.84 234.353 225.096Z" fill="#6299FF"/>
<path opacity="0.4" d="M263.388 327.052C263.224 326.349 262.971 325.669 262.636 325.029C261.802 323.563 260.433 322.63 257.606 321.758C253.665 320.532 248.905 316.878 242.25 311.982C236.918 308.049 231.722 306.493 228.496 304.018C232.03 304.966 236.076 303.078 238.054 305.44C240.926 308.846 251.477 312.524 251.477 312.524C262.448 319.194 263.388 327.052 263.388 327.052Z" fill="#6299FF"/>
<path opacity="0.4" d="M249.514 241.392C248.416 241.392 247.258 249.13 247.566 251.694C248.401 258.32 256.477 277.45 252.078 278.014C250.266 278.255 245.979 269.442 244.814 265.14C241.287 252.055 240.505 246.453 240.505 246.453C240.505 246.453 237.82 239.384 237.264 234.263C237.512 235.015 237.745 235.767 237.971 236.519C239.279 241.031 240.505 244.25 240.505 244.25C240.505 244.25 245.265 242.655 247.754 241.61C248.315 241.398 248.918 241.323 249.514 241.392Z" fill="#6299FF"/>
<path opacity="0.4" d="M265.546 240.64C263.29 241.392 261.523 244.197 259.741 245.047C257.56 246.092 252.108 241.926 249.566 241.46C252.198 241.655 255.838 243.355 258.387 242.573C260.719 241.741 263.113 241.095 265.546 240.64Z" fill="#6299FF"/>
<path opacity="0.4" d="M281.308 241.129C280.511 242.825 279.976 244.633 279.722 246.49C279.3 252.913 286.49 275.127 282.594 272.134C277.556 268.246 277.616 250.581 273.269 244.881C271.878 243.054 267.9 240.557 267.141 240.444C269.968 240.332 274.871 242.7 276.811 242.234C278.278 241.743 279.782 241.374 281.308 241.129Z" fill="#6299FF"/>
<path opacity="0.4" d="M325.909 313.509C322.067 310.817 318.096 308.32 315.75 307.568C309.99 305.808 307.809 303.056 306.147 298.04C304.485 293.024 305.816 292.821 306.147 287.384C306.478 281.947 302.131 276.345 302.673 277.653C303.214 278.962 303.079 288.933 301.439 289.798C299.8 290.663 297.679 284.497 296.235 279.383C294.792 274.269 291.851 249.581 289.941 245.069C289.675 244.41 289.304 243.798 288.843 243.257C290.219 244.196 291.427 245.36 292.415 246.701C294.619 249.709 299.379 253.371 299.695 254.221C300.01 255.071 300.131 258.914 301.71 262.644C303.289 266.373 305.846 271.818 306.56 278.157C307.275 284.497 306.824 289.279 309.839 293.806C312.855 298.333 315.276 300.274 318.013 306.019C317.983 306.064 321.315 309.192 325.909 313.509Z" fill="#6299FF"/>
<path opacity="0.4" d="M263.629 254.574C265.065 255.507 269.569 271.118 271.149 274.878C272.728 278.638 272.938 288.414 271.111 285.858C269.284 283.301 257.771 250.777 263.629 254.574Z" fill="#6299FF"/>
<path d="M281.331 348.477C278.248 344.003 275.45 340.107 273.668 337.987C271.484 335.356 269.065 332.93 266.441 330.737C264.765 329.293 263.764 328.414 263.388 327.052C263.224 326.349 262.971 325.67 262.636 325.03C261.802 323.563 260.433 322.631 257.605 321.758C253.665 320.533 248.905 316.878 242.25 311.982C236.918 308.049 231.722 306.493 228.496 304.019C227.719 303.436 227.041 302.733 226.488 301.936C223.833 298.01 223.856 290.919 222.307 284.444C220.757 277.969 219.216 272.961 219.299 270.434C219.309 270.148 219.347 269.864 219.411 269.585C219.411 269.585 219.411 269.547 219.411 269.524C219.99 266.938 222.307 263.102 222.179 259.583C222.028 255.62 221.72 250.1 221.818 249.506C221.916 248.912 222.968 248.085 224.42 248.423C224.42 248.423 223.57 241.55 222.532 238.143C221.494 234.737 221.968 230.059 220.667 223.171C219.366 216.283 220.306 216.403 220.389 211.485C220.472 206.567 222.066 204.717 224.984 204.446C228.315 204.176 229.601 206.387 230.556 209.575C230.955 210.891 231.308 212.372 231.692 213.907L231.827 214.433C233.113 219.351 233.82 221.855 234.376 225.141C234.478 225.737 234.611 226.327 234.775 226.909C235.391 229.165 236.392 231.594 237.309 234.331C237.557 235.083 237.79 235.835 238.016 236.587C239.324 241.099 240.55 244.317 240.55 244.317C240.55 244.317 245.31 242.723 247.799 241.678C248.351 241.471 248.943 241.396 249.529 241.46H249.582C252.214 241.655 255.853 243.355 258.403 242.573C260.734 241.741 263.128 241.095 265.562 240.64C266.088 240.565 266.607 240.512 267.133 240.49C269.961 240.377 274.864 242.746 276.804 242.279C278.275 241.788 279.784 241.418 281.316 241.174C282.092 241.1 282.874 241.115 283.647 241.219C285.511 241.517 287.281 242.24 288.821 243.332C290.197 244.271 291.405 245.435 292.393 246.776C294.596 249.784 299.357 253.447 299.672 254.296C299.988 255.146 300.109 258.989 301.688 262.719C303.267 266.449 305.824 271.893 306.538 278.233C307.253 284.572 306.801 289.355 309.817 293.882C312.832 298.409 315.254 300.349 317.991 306.094C317.991 306.094 321.322 309.245 325.917 313.562C329.113 316.57 332.918 320.119 336.641 323.571" stroke="#263238" stroke-width="0.752" stroke-linecap="round" stroke-linejoin="round"/>
<path d="M224.39 248.37C225.525 253.123 226.503 259.132 226.367 261.756C226.232 264.381 228.684 272.465 228.187 276.24" stroke="#263238" stroke-width="0.752" stroke-linecap="round" stroke-linejoin="round"/>
<path d="M227.736 251.529C227.736 251.529 230.15 247.017 232.601 246.408C235.053 245.799 237.865 246.821 240.535 246.491C243.204 246.16 245.438 243.603 247.814 242.55" stroke="#263238" stroke-width="0.752" stroke-linecap="round" stroke-linejoin="round"/>
<path d="M225.465 233.759C225.465 233.759 229.533 231.059 232.233 232.135" stroke="#263238" stroke-width="0.752" stroke-linecap="round" stroke-linejoin="round"/>
<path d="M228.345 230.864C229.464 230.4 230.707 230.329 231.872 230.661" stroke="#263238" stroke-width="0.752" stroke-linecap="round" stroke-linejoin="round"/>
<path d="M224.397 219.584C225.822 218.889 227.383 218.516 228.969 218.494" stroke="#263238" stroke-width="0.752" stroke-linecap="round" stroke-linejoin="round"/>
<path d="M219.389 269.472C220.522 268.514 221.749 267.672 223.051 266.96" stroke="#263238" stroke-width="0.752" stroke-linecap="round" stroke-linejoin="round"/>
<path d="M228.007 272.081C227.489 273.526 227.121 275.02 226.909 276.541" stroke="#263238" stroke-width="0.752" stroke-linecap="round" stroke-linejoin="round"/>
<path d="M221.607 207.935C221.607 207.935 222.231 213.598 223.036 213.951C223.84 214.305 229.285 213.462 229.488 212.41C229.691 211.357 228.811 207.311 228.811 207.311C228.811 207.311 224.314 202.566 221.607 207.935Z" stroke="#263238" stroke-width="0.752" stroke-linecap="round" stroke-linejoin="round"/>
<path d="M222.149 259.53C222.149 259.53 226.029 256.244 225.375 253.033C224.721 249.822 223.427 250.16 221.78 250.536" stroke="#263238" stroke-width="0.752" stroke-linecap="round" stroke-linejoin="round"/>
<path d="M292.746 250.303C294.1 255.304 296.168 270.336 296.506 272.532C296.844 274.728 298.341 280.218 298.341 280.218" stroke="#263238" stroke-width="0.752" stroke-linecap="round" stroke-linejoin="round"/>
<path d="M258.455 246.31C264.862 252.093 259.478 250.604 270.397 282.895" stroke="#263238" stroke-width="0.752" stroke-linecap="round" stroke-linejoin="round"/>
<path d="M317.983 306.064C317.983 306.064 312.99 303.808 311.824 302.101" stroke="#263238" stroke-width="0.752" stroke-linecap="round" stroke-linejoin="round"/>
<path d="M258.824 318.54C260.583 320.337 262.486 324.736 262.584 325.007" stroke="#263238" stroke-width="0.752" stroke-linecap="round" stroke-linejoin="round"/>
<defs>
<linearGradient id="paint0_linear_350_2038" x1="184" y1="13.0001" x2="199.5" y2="420" gradientUnits="userSpaceOnUse">
<stop stop-color="#9FB4FF"/>
<stop offset="1" stop-color="#ECDAFF"/>
</linearGradient>
</defs>
</svg>
