<svg width="123" height="27" viewBox="0 0 123 27" fill="none" xmlns="http://www.w3.org/2000/svg">
<path d="M2.27614 21.1565V11.0156C2.27614 10.0087 2.56982 9.20561 3.15717 8.60627C3.75652 7.99494 4.60758 7.68927 5.71037 7.68927C6.10594 7.68927 6.47753 7.73123 6.82515 7.81513C7.18475 7.89904 7.48443 8.0309 7.72416 8.2107L7.11283 9.90085C6.94502 9.76899 6.75323 9.6731 6.53746 9.61316C6.3217 9.54124 6.09994 9.50528 5.87219 9.50528C5.40471 9.50528 5.0511 9.63714 4.81136 9.90085C4.57162 10.1526 4.45175 10.5361 4.45175 11.0516V12.1304L4.52367 13.1373V21.1565H2.27614ZM0.693877 13.425V11.627H7.09485V13.425H0.693877ZM12.6713 21.2824C11.8562 21.2824 11.1369 21.1325 10.5136 20.8328C9.89032 20.5212 9.40485 20.0537 9.05723 19.4304C8.70961 18.7951 8.5358 17.998 8.5358 17.039V11.555H10.7833V16.7333C10.7833 17.5964 10.9751 18.2437 11.3587 18.6752C11.7543 19.0948 12.3117 19.3045 13.0309 19.3045C13.5583 19.3045 14.0138 19.1966 14.3974 18.9809C14.7929 18.7651 15.0986 18.4415 15.3144 18.0099C15.5421 17.5784 15.656 17.045 15.656 16.4097V11.555H17.9035V21.1565H15.7639V18.5673L16.1415 19.3585C15.8178 19.9818 15.3443 20.4613 14.721 20.7969C14.0977 21.1205 13.4144 21.2824 12.6713 21.2824ZM26.2943 11.4471C27.0614 11.4471 27.7447 11.597 28.344 11.8967C28.9553 12.1963 29.4348 12.6578 29.7824 13.2811C30.1301 13.8925 30.3039 14.6836 30.3039 15.6545V21.1565H28.0563V15.9422C28.0563 15.0911 27.8526 14.4558 27.445 14.0363C27.0494 13.6168 26.4921 13.407 25.7728 13.407C25.2454 13.407 24.7779 13.5149 24.3704 13.7306C23.9628 13.9464 23.6452 14.2701 23.4174 14.7016C23.2017 15.1211 23.0938 15.6545 23.0938 16.3018V21.1565H20.8462V11.555H22.9859V14.1442L22.6083 13.3531C22.9439 12.7417 23.4294 12.2742 24.0647 11.9506C24.712 11.615 25.4552 11.4471 26.2943 11.4471ZM37.2361 21.2824C36.3131 21.2824 35.48 21.0786 34.7368 20.671C34.0056 20.2515 33.4303 19.6761 33.0107 18.9449C32.5912 18.2137 32.3814 17.3507 32.3814 16.3558C32.3814 15.3609 32.5912 14.4978 33.0107 13.7666C33.4303 13.0354 34.0056 12.466 34.7368 12.0585C35.48 11.6509 36.3131 11.4471 37.2361 11.4471C38.0392 11.4471 38.7584 11.627 39.3937 11.9866C40.029 12.3342 40.5325 12.8676 40.9041 13.5868C41.2757 14.306 41.4615 15.229 41.4615 16.3558C41.4615 17.4705 41.2817 18.3935 40.9221 19.1247C40.5625 19.8439 40.065 20.3833 39.4297 20.7429C38.7944 21.1026 38.0632 21.2824 37.2361 21.2824ZM37.5058 19.3585C38.0452 19.3585 38.5247 19.2386 38.9442 18.9989C39.3758 18.7591 39.7174 18.4115 39.9691 17.956C40.2328 17.5005 40.3647 16.9671 40.3647 16.3558C40.3647 15.7324 40.2328 15.199 39.9691 14.7555C39.7174 14.3 39.3758 13.9524 38.9442 13.7127C38.5247 13.4729 38.0452 13.3531 37.5058 13.3531C36.9664 13.3531 36.4809 13.4729 36.0494 13.7127C35.6299 13.9524 35.2882 14.3 35.0245 14.7555C34.7728 15.199 34.6469 15.7324 34.6469 16.3558C34.6469 16.9671 34.7728 17.5005 35.0245 17.956C35.2882 18.4115 35.6299 18.7591 36.0494 18.9989C36.4809 19.2386 36.9664 19.3585 37.5058 19.3585ZM40.4186 21.1565V18.891L40.5085 16.3378L40.3287 13.7846V7.81513H42.5583V21.1565H40.4186ZM57.6351 11.4471C58.4023 11.4471 59.0796 11.597 59.6669 11.8967C60.2663 12.1963 60.7337 12.6578 61.0694 13.2811C61.405 13.8925 61.5728 14.6836 61.5728 15.6545V21.1565H59.3253V15.9422C59.3253 15.0911 59.1395 14.4558 58.7679 14.0363C58.3963 13.6168 57.8629 13.407 57.1677 13.407C56.6762 13.407 56.2387 13.5149 55.8551 13.7306C55.4835 13.9464 55.1898 14.2641 54.9741 14.6836C54.7703 15.1031 54.6684 15.6366 54.6684 16.2838V21.1565H52.4209V15.9422C52.4209 15.0911 52.2351 14.4558 51.8635 14.0363C51.4919 13.6168 50.9585 13.407 50.2632 13.407C49.7718 13.407 49.3342 13.5149 48.9507 13.7306C48.5791 13.9464 48.2854 14.2641 48.0696 14.6836C47.8659 15.1031 47.764 15.6366 47.764 16.2838V21.1565H45.5164V11.555H47.6561V14.1082L47.2785 13.3531C47.6022 12.7297 48.0696 12.2563 48.681 11.9326C49.3043 11.609 50.0115 11.4471 50.8026 11.4471C51.7017 11.4471 52.4808 11.6689 53.1401 12.1124C53.8113 12.5559 54.2549 13.2272 54.4706 14.1262L53.5896 13.8205C53.9012 13.1013 54.4167 12.526 55.1359 12.0944C55.8551 11.6629 56.6882 11.4471 57.6351 11.4471ZM65.0604 24.7705C64.5929 24.7705 64.1255 24.6926 63.658 24.5368C63.1905 24.381 62.8009 24.1652 62.4892 23.8895L63.3883 22.2353C63.616 22.4391 63.8737 22.6009 64.1614 22.7208C64.4491 22.8406 64.7428 22.9006 65.0424 22.9006C65.45 22.9006 65.7796 22.7987 66.0314 22.5949C66.2831 22.3911 66.5168 22.0495 66.7326 21.57L67.29 20.3114L67.4698 20.0417L71.1018 11.555H73.2594L68.7644 21.9296C68.4647 22.6489 68.1291 23.2182 67.7575 23.6378C67.3979 24.0573 66.9903 24.351 66.5348 24.5188C66.0913 24.6866 65.5998 24.7705 65.0604 24.7705ZM67.0383 21.4981L62.705 11.555H65.0424L68.5666 19.8439L67.0383 21.4981ZM78.752 24.7705C77.865 24.7705 76.9959 24.6507 76.1448 24.4109C75.3058 24.1832 74.6165 23.8475 74.0771 23.404L75.084 21.7139C75.5035 22.0615 76.031 22.3372 76.6663 22.541C77.3136 22.7567 77.9668 22.8646 78.6261 22.8646C79.681 22.8646 80.4541 22.6189 80.9456 22.1274C81.437 21.648 81.6828 20.9228 81.6828 19.9518V18.2437L81.8626 16.0681L81.7906 13.8925V11.555H83.9303V19.7001C83.9303 21.4382 83.4868 22.7148 82.5998 23.5299C81.7127 24.357 80.4301 24.7705 78.752 24.7705ZM78.4643 20.725C77.5533 20.725 76.7262 20.5332 75.983 20.1496C75.2518 19.754 74.6705 19.2086 74.2389 18.5134C73.8194 17.8182 73.6096 17.0031 73.6096 16.0681C73.6096 15.1451 73.8194 14.336 74.2389 13.6407C74.6705 12.9455 75.2518 12.4061 75.983 12.0225C76.7262 11.6389 77.5533 11.4471 78.4643 11.4471C79.2794 11.4471 80.0106 11.609 80.6579 11.9326C81.3052 12.2563 81.8206 12.7597 82.2042 13.443C82.5998 14.1262 82.7975 15.0012 82.7975 16.0681C82.7975 17.1349 82.5998 18.0159 82.2042 18.7112C81.8206 19.3944 81.3052 19.9039 80.6579 20.2395C80.0106 20.5631 79.2794 20.725 78.4643 20.725ZM78.8059 18.8191C79.3693 18.8191 79.8728 18.7052 80.3163 18.4774C80.7598 18.2377 81.1014 17.9141 81.3411 17.5065C81.5929 17.087 81.7187 16.6075 81.7187 16.0681C81.7187 15.5287 81.5929 15.0552 81.3411 14.6476C81.1014 14.2281 80.7598 13.9104 80.3163 13.6947C79.8728 13.4669 79.3693 13.3531 78.8059 13.3531C78.2425 13.3531 77.7331 13.4669 77.2776 13.6947C76.8341 13.9104 76.4865 14.2281 76.2347 14.6476C75.995 15.0552 75.8751 15.5287 75.8751 16.0681C75.8751 16.6075 75.995 17.087 76.2347 17.5065C76.4865 17.9141 76.8341 18.2377 77.2776 18.4774C77.7331 18.7052 78.2425 18.8191 78.8059 18.8191ZM86.8851 21.1565V11.555H89.0248V14.1981L88.773 13.425C89.0607 12.7777 89.5102 12.2862 90.1216 11.9506C90.7449 11.615 91.518 11.4471 92.441 11.4471V13.5868C92.3451 13.5628 92.2552 13.5508 92.1713 13.5508C92.0874 13.5389 92.0035 13.5329 91.9196 13.5329C91.0685 13.5329 90.3913 13.7846 89.8878 14.288C89.3844 14.7795 89.1326 15.5167 89.1326 16.4996V21.1565H86.8851ZM99.5783 21.1565V19.2146L99.4525 18.8011V15.4028C99.4525 14.7435 99.2547 14.2341 98.8591 13.8745C98.4636 13.5029 97.8642 13.3171 97.0611 13.3171C96.5217 13.3171 95.9883 13.401 95.4608 13.5688C94.9454 13.7366 94.5079 13.9704 94.1483 14.2701L93.2673 12.6338C93.7827 12.2383 94.394 11.9446 95.1012 11.7528C95.8205 11.549 96.5636 11.4471 97.3308 11.4471C98.7213 11.4471 99.7941 11.7828 100.549 12.454C101.316 13.1133 101.7 14.1382 101.7 15.5287V21.1565H99.5783ZM96.5576 21.2824C95.8384 21.2824 95.2091 21.1625 94.6697 20.9228C94.1303 20.671 93.7108 20.3294 93.4111 19.8979C93.1234 19.4544 92.9796 18.9569 92.9796 18.4055C92.9796 17.8661 93.1054 17.3806 93.3572 16.9491C93.6209 16.5176 94.0464 16.176 94.6338 15.9242C95.2211 15.6725 96.0003 15.5467 96.9712 15.5467H99.7581V17.039H97.133C96.3659 17.039 95.8504 17.1649 95.5867 17.4166C95.323 17.6563 95.1911 17.956 95.1911 18.3156C95.1911 18.7232 95.353 19.0468 95.6766 19.2865C96.0003 19.5263 96.4498 19.6462 97.0251 19.6462C97.5765 19.6462 98.068 19.5203 98.4995 19.2686C98.943 19.0168 99.2607 18.6452 99.4525 18.1538L99.8301 19.5023C99.6143 20.0657 99.2247 20.5032 98.6613 20.8149C98.1099 21.1265 97.4087 21.2824 96.5576 21.2824ZM108.666 21.2824C107.743 21.2824 106.909 21.0786 106.166 20.671C105.435 20.2515 104.86 19.6761 104.44 18.9449C104.021 18.2137 103.811 17.3507 103.811 16.3558C103.811 15.3609 104.021 14.4978 104.44 13.7666C104.86 13.0354 105.435 12.466 106.166 12.0585C106.909 11.6509 107.743 11.4471 108.666 11.4471C109.469 11.4471 110.188 11.627 110.823 11.9866C111.458 12.3342 111.962 12.8676 112.334 13.5868C112.705 14.306 112.891 15.229 112.891 16.3558C112.891 17.4705 112.711 18.3935 112.351 19.1247C111.992 19.8439 111.494 20.3833 110.859 20.7429C110.224 21.1026 109.493 21.2824 108.666 21.2824ZM108.935 19.3585C109.475 19.3585 109.954 19.2386 110.374 18.9989C110.805 18.7591 111.147 18.4115 111.399 17.956C111.662 17.5005 111.794 16.9671 111.794 16.3558C111.794 15.7324 111.662 15.199 111.399 14.7555C111.147 14.3 110.805 13.9524 110.374 13.7127C109.954 13.4729 109.475 13.3531 108.935 13.3531C108.396 13.3531 107.91 13.4729 107.479 13.7127C107.059 13.9524 106.718 14.3 106.454 14.7555C106.202 15.199 106.076 15.7324 106.076 16.3558C106.076 16.9671 106.202 17.5005 106.454 17.956C106.718 18.4115 107.059 18.7591 107.479 18.9989C107.91 19.2386 108.396 19.3585 108.935 19.3585ZM111.848 21.1565V18.891L111.938 16.3378L111.758 13.7846V7.81513H113.988V21.1565H111.848Z" fill="#5B749C"/>
<path d="M112.83 1.01538L103.84 4.01203L112.83 7.00868L121.82 4.01203L112.83 1.01538Z" fill="#5B749C" stroke="#5B749C" stroke-width="0.749178" stroke-linecap="round" stroke-linejoin="round"/>
<path d="M121.82 4.01221V7.00885" stroke="#5B749C" stroke-width="0.749178" stroke-linecap="round" stroke-linejoin="round"/>
</svg>
