<svg width="203" height="44" viewBox="0 0 203 44" fill="none" xmlns="http://www.w3.org/2000/svg">
<path d="M3.7677 35.2002V18.409C3.7677 16.7418 4.25397 15.412 5.22651 14.4196C6.2189 13.4074 7.62809 12.9012 9.45409 12.9012C10.1091 12.9012 10.7243 12.9707 11.2999 13.1096C11.8954 13.2486 12.3916 13.4669 12.7885 13.7646L11.7763 16.5631C11.4984 16.3448 11.1808 16.186 10.8236 16.0868C10.4663 15.9677 10.0991 15.9082 9.72203 15.9082C8.94797 15.9082 8.36246 16.1265 7.96551 16.5631C7.56855 16.98 7.37007 17.6151 7.37007 18.4685V20.2548L7.48916 21.922V35.2002H3.7677ZM1.1478 22.3984V19.4212H11.7465V22.3984H1.1478ZM20.9799 35.4086C19.6303 35.4086 18.4394 35.1605 17.4073 34.6643C16.3752 34.1483 15.5714 33.3742 14.9958 32.3421C14.4202 31.2902 14.1324 29.9703 14.1324 28.3825V19.3021H17.8539V27.8764C17.8539 29.3054 18.1714 30.3772 18.8066 31.0917C19.4615 31.7864 20.3845 32.1337 21.5753 32.1337C22.4486 32.1337 23.2028 31.9551 23.838 31.5978C24.493 31.2406 24.9991 30.7047 25.3563 29.9902C25.7334 29.2756 25.922 28.3924 25.922 27.3405V19.3021H29.6434V35.2002H26.1006V30.9131L26.7258 32.223C26.1899 33.2551 25.4059 34.049 24.3739 34.6048C23.3418 35.1407 22.2105 35.4086 20.9799 35.4086ZM43.5368 19.1235C44.8071 19.1235 45.9384 19.3716 46.9308 19.8678C47.943 20.364 48.7369 21.1281 49.3125 22.1602C49.8881 23.1725 50.1759 24.4824 50.1759 26.0901V35.2002H46.4544V26.5664C46.4544 25.1572 46.117 24.1053 45.4422 23.4106C44.7872 22.716 43.8643 22.3686 42.6734 22.3686C41.8001 22.3686 41.0261 22.5472 40.3512 22.9045C39.6764 23.2618 39.1504 23.7977 38.7733 24.5122C38.4161 25.2068 38.2374 26.0901 38.2374 27.1619V35.2002H34.516V19.3021H38.0588V23.5893L37.4336 22.2793C37.9893 21.2671 38.7932 20.493 39.8451 19.9571C40.9169 19.4014 42.1475 19.1235 43.5368 19.1235ZM61.6542 35.4086C60.126 35.4086 58.7465 35.0712 57.516 34.3964C56.3053 33.7017 55.3526 32.749 54.6579 31.5383C53.9632 30.3276 53.6159 28.8985 53.6159 27.2512C53.6159 25.6038 53.9632 24.1748 54.6579 22.9641C55.3526 21.7533 56.3053 20.8106 57.516 20.1357C58.7465 19.4609 60.126 19.1235 61.6542 19.1235C62.984 19.1235 64.1749 19.4212 65.2268 20.0167C66.2788 20.5922 67.1124 21.4755 67.7276 22.6663C68.3429 23.8572 68.6506 25.3855 68.6506 27.2512C68.6506 29.097 68.3529 30.6253 67.7574 31.836C67.162 33.0269 66.3383 33.92 65.2864 34.5154C64.2344 35.1109 63.0237 35.4086 61.6542 35.4086ZM62.1008 32.223C62.994 32.223 63.7879 32.0246 64.4825 31.6276C65.1971 31.2306 65.7627 30.6551 66.1795 29.9008C66.6162 29.1466 66.8345 28.2634 66.8345 27.2512C66.8345 26.2191 66.6162 25.3359 66.1795 24.6015C65.7627 23.8473 65.1971 23.2717 64.4825 22.8747C63.7879 22.4778 62.994 22.2793 62.1008 22.2793C61.2077 22.2793 60.4038 22.4778 59.6893 22.8747C58.9946 23.2717 58.429 23.8473 57.9923 24.6015C57.5755 25.3359 57.3671 26.2191 57.3671 27.2512C57.3671 28.2634 57.5755 29.1466 57.9923 29.9008C58.429 30.6551 58.9946 31.2306 59.6893 31.6276C60.4038 32.0246 61.2077 32.223 62.1008 32.223ZM66.9238 35.2002V31.449L67.0727 27.2214L66.775 22.9938V13.1096H70.4666V35.2002H66.9238ZM95.4309 19.1235C96.7011 19.1235 97.8225 19.3716 98.795 19.8678C99.7874 20.364 100.561 21.1281 101.117 22.1602C101.673 23.1725 101.951 24.4824 101.951 26.0901V35.2002H98.2294V26.5664C98.2294 25.1572 97.9217 24.1053 97.3065 23.4106C96.6912 22.716 95.808 22.3686 94.6568 22.3686C93.843 22.3686 93.1186 22.5472 92.4835 22.9045C91.8682 23.2618 91.3819 23.7877 91.0246 24.4824C90.6872 25.1771 90.5185 26.0603 90.5185 27.1321V35.2002H86.7971V26.5664C86.7971 25.1572 86.4894 24.1053 85.8742 23.4106C85.2589 22.716 84.3756 22.3686 83.2245 22.3686C82.4107 22.3686 81.6863 22.5472 81.0511 22.9045C80.4359 23.2618 79.9496 23.7877 79.5923 24.4824C79.2549 25.1771 79.0862 26.0603 79.0862 27.1321V35.2002H75.3648V19.3021H78.9076V23.5297L78.2824 22.2793C78.8183 21.2472 79.5923 20.4632 80.6046 19.9273C81.6367 19.3915 82.8077 19.1235 84.1176 19.1235C85.6062 19.1235 86.8963 19.4907 87.9879 20.2251C89.0994 20.9594 89.8338 22.0709 90.191 23.5595L88.7322 23.0534C89.2483 21.8625 90.1017 20.9098 91.2926 20.1953C92.4835 19.4808 93.8629 19.1235 95.4309 19.1235ZM107.726 41.1843C106.952 41.1843 106.177 41.0553 105.403 40.7973C104.629 40.5392 103.984 40.182 103.468 39.7255L104.957 36.9865C105.334 37.3239 105.761 37.5919 106.237 37.7903C106.713 37.9888 107.2 38.088 107.696 38.088C108.371 38.088 108.916 37.9193 109.333 37.5819C109.75 37.2445 110.137 36.6789 110.494 35.8849L111.417 33.8009L111.715 33.3544L117.729 19.3021H121.301L113.859 36.4804C113.362 37.6712 112.807 38.614 112.191 39.3087C111.596 40.0034 110.921 40.4896 110.167 40.7675C109.433 41.0454 108.619 41.1843 107.726 41.1843ZM111 35.7659L103.826 19.3021H107.696L113.531 33.0269L111 35.7659ZM130.396 41.1843C128.927 41.1843 127.488 40.9858 126.079 40.5889C124.69 40.2118 123.549 39.656 122.655 38.9216L124.323 36.1231C125.017 36.6987 125.891 37.1552 126.943 37.4926C128.014 37.8499 129.096 38.0285 130.188 38.0285C131.934 38.0285 133.214 37.6216 134.028 36.8079C134.842 36.014 135.249 34.8132 135.249 33.2055V30.3772L135.547 26.7748L135.427 23.1725V19.3021H138.97V32.7887C138.97 35.6666 138.236 37.7804 136.767 39.1301C135.298 40.4995 133.175 41.1843 130.396 41.1843ZM129.92 34.4857C128.411 34.4857 127.042 34.1681 125.811 33.533C124.6 32.878 123.638 31.9749 122.923 30.8238C122.229 29.6726 121.881 28.3229 121.881 26.7748C121.881 25.2465 122.229 23.9068 122.923 22.7557C123.638 21.6045 124.6 20.7113 125.811 20.0762C127.042 19.4411 128.411 19.1235 129.92 19.1235C131.269 19.1235 132.48 19.3915 133.552 19.9273C134.624 20.4632 135.477 21.2968 136.112 22.4282C136.767 23.5595 137.095 25.0084 137.095 26.7748C137.095 28.5413 136.767 30.0001 136.112 31.1513C135.477 32.2826 134.624 33.1261 133.552 33.6818C132.48 34.2177 131.269 34.4857 129.92 34.4857ZM130.485 31.3299C131.418 31.3299 132.252 31.1413 132.986 30.7642C133.721 30.3673 134.286 29.8314 134.683 29.1566C135.1 28.4619 135.308 27.668 135.308 26.7748C135.308 25.8817 135.1 25.0977 134.683 24.4229C134.286 23.7282 133.721 23.2022 132.986 22.845C132.252 22.4679 131.418 22.2793 130.485 22.2793C129.552 22.2793 128.709 22.4679 127.955 22.845C127.22 23.2022 126.645 23.7282 126.228 24.4229C125.831 25.0977 125.633 25.8817 125.633 26.7748C125.633 27.668 125.831 28.4619 126.228 29.1566C126.645 29.8314 127.22 30.3673 127.955 30.7642C128.709 31.1413 129.552 31.3299 130.485 31.3299ZM143.863 35.2002V19.3021H147.406V23.6786L146.989 22.3984C147.465 21.3266 148.209 20.5129 149.222 19.9571C150.254 19.4014 151.534 19.1235 153.062 19.1235V22.6663C152.903 22.6266 152.755 22.6068 152.616 22.6068C152.477 22.5869 152.338 22.577 152.199 22.577C150.79 22.577 149.668 22.9938 148.835 23.8274C148.001 24.6412 147.584 25.8618 147.584 27.4893V35.2002H143.863ZM164.88 35.2002V31.9849L164.672 31.3001V25.6733C164.672 24.5816 164.344 23.7381 163.689 23.1427C163.034 22.5274 162.042 22.2198 160.712 22.2198C159.819 22.2198 158.936 22.3587 158.062 22.6366C157.209 22.9144 156.485 23.3015 155.889 23.7977L154.43 21.0884C155.284 20.4335 156.296 19.9472 157.467 19.6296C158.658 19.2922 159.888 19.1235 161.159 19.1235C163.461 19.1235 165.237 19.6792 166.488 20.7907C167.758 21.8823 168.393 23.5793 168.393 25.8817V35.2002H164.88ZM159.879 35.4086C158.688 35.4086 157.646 35.2101 156.753 34.8132C155.859 34.3964 155.165 33.8307 154.668 33.1162C154.192 32.3818 153.954 31.5581 153.954 30.6451C153.954 29.752 154.162 28.9482 154.579 28.2336C155.016 27.5191 155.72 26.9535 156.693 26.5366C157.666 26.1198 158.956 25.9114 160.563 25.9114H165.178V28.3825H160.831C159.561 28.3825 158.708 28.5909 158.271 29.0077C157.834 29.4046 157.616 29.9008 157.616 30.4963C157.616 31.1711 157.884 31.707 158.42 32.1039C158.956 32.5009 159.7 32.6994 160.653 32.6994C161.566 32.6994 162.379 32.491 163.094 32.0742C163.828 31.6574 164.354 31.0421 164.672 30.2283L165.297 32.4612C164.94 33.394 164.295 34.1185 163.362 34.6345C162.449 35.1506 161.288 35.4086 159.879 35.4086ZM179.927 35.4086C178.398 35.4086 177.019 35.0712 175.788 34.3964C174.578 33.7017 173.625 32.749 172.93 31.5383C172.236 30.3276 171.888 28.8985 171.888 27.2512C171.888 25.6038 172.236 24.1748 172.93 22.9641C173.625 21.7533 174.578 20.8106 175.788 20.1357C177.019 19.4609 178.398 19.1235 179.927 19.1235C181.257 19.1235 182.447 19.4212 183.499 20.0167C184.551 20.5922 185.385 21.4755 186 22.6663C186.615 23.8572 186.923 25.3855 186.923 27.2512C186.923 29.097 186.625 30.6253 186.03 31.836C185.434 33.0269 184.611 33.92 183.559 34.5154C182.507 35.1109 181.296 35.4086 179.927 35.4086ZM180.373 32.223C181.266 32.223 182.06 32.0246 182.755 31.6276C183.47 31.2306 184.035 30.6551 184.452 29.9008C184.889 29.1466 185.107 28.2634 185.107 27.2512C185.107 26.2191 184.889 25.3359 184.452 24.6015C184.035 23.8473 183.47 23.2717 182.755 22.8747C182.06 22.4778 181.266 22.2793 180.373 22.2793C179.48 22.2793 178.676 22.4778 177.962 22.8747C177.267 23.2717 176.701 23.8473 176.265 24.6015C175.848 25.3359 175.64 26.2191 175.64 27.2512C175.64 28.2634 175.848 29.1466 176.265 29.9008C176.701 30.6551 177.267 31.2306 177.962 31.6276C178.676 32.0246 179.48 32.223 180.373 32.223ZM185.196 35.2002V31.449L185.345 27.2214L185.047 22.9938V13.1096H188.739V35.2002H185.196Z" fill="#0057E4"/>
<path d="M186.823 1L171.938 5.96183L186.823 10.9237L201.709 5.96183L186.823 1Z" fill="#0057E4" stroke="#0057E4" stroke-width="1.24048" stroke-linecap="round" stroke-linejoin="round"/>
<path d="M201.709 5.96191V10.9237" stroke="#0057E4" stroke-width="1.24048" stroke-linecap="round" stroke-linejoin="round"/>
</svg>
